<mxfile host="app.diagrams.net" agent="Mozilla/5.0 (Windows NT 10.0; Win64; x64) AppleWebKit/537.36 (KHTML, like Gecko) Chrome/137.0.0.0 Safari/537.36" version="27.1.6">
  <diagram name="Page-1" id="PXCGWLyjpS2FOCeSeXsM">
    <mxGraphModel dx="3313" dy="1043" grid="0" gridSize="10" guides="1" tooltips="1" connect="1" arrows="1" fold="1" page="0" pageScale="1" pageWidth="1100" pageHeight="1700" background="light-dark(#FFFFFF,#FFFFFF)" math="0" shadow="0">
      <root>
        <mxCell id="0" />
        <mxCell id="1" parent="0" />
        <mxCell id="6iKRiyLIUnuLd1ZY3PGh-1" value="city" style="shape=table;startSize=30;container=1;collapsible=1;childLayout=tableLayout;fixedRows=1;rowLines=0;fontStyle=1;align=center;resizeLast=1;html=1;labelBackgroundColor=none;fillColor=#BC6C25;strokeColor=#DDA15E;fontColor=#FEFAE0;rounded=1;strokeWidth=3;" parent="1" vertex="1">
          <mxGeometry x="364" y="278" width="200" height="180" as="geometry" />
        </mxCell>
        <mxCell id="6iKRiyLIUnuLd1ZY3PGh-2" value="" style="shape=tableRow;horizontal=0;startSize=0;swimlaneHead=0;swimlaneBody=0;fillColor=none;collapsible=0;dropTarget=0;points=[[0,0.5],[1,0.5]];portConstraint=eastwest;top=0;left=0;right=0;bottom=1;labelBackgroundColor=none;strokeColor=#DDA15E;fontColor=#FEFAE0;rounded=1;strokeWidth=3;" parent="6iKRiyLIUnuLd1ZY3PGh-1" vertex="1">
          <mxGeometry y="30" width="200" height="30" as="geometry" />
        </mxCell>
        <mxCell id="6iKRiyLIUnuLd1ZY3PGh-3" value="PK" style="shape=partialRectangle;connectable=0;fillColor=none;top=0;left=0;bottom=0;right=0;fontStyle=1;overflow=hidden;whiteSpace=wrap;html=1;labelBackgroundColor=none;strokeColor=#DDA15E;fontColor=#FEFAE0;rounded=1;strokeWidth=3;" parent="6iKRiyLIUnuLd1ZY3PGh-2" vertex="1">
          <mxGeometry width="30" height="30" as="geometry">
            <mxRectangle width="30" height="30" as="alternateBounds" />
          </mxGeometry>
        </mxCell>
        <mxCell id="6iKRiyLIUnuLd1ZY3PGh-4" value="fid serial not null" style="shape=partialRectangle;connectable=0;fillColor=none;top=0;left=0;bottom=0;right=0;align=left;spacingLeft=6;fontStyle=5;overflow=hidden;whiteSpace=wrap;html=1;labelBackgroundColor=none;strokeColor=#DDA15E;fontColor=#FEFAE0;rounded=1;strokeWidth=3;" parent="6iKRiyLIUnuLd1ZY3PGh-2" vertex="1">
          <mxGeometry x="30" width="170" height="30" as="geometry">
            <mxRectangle width="170" height="30" as="alternateBounds" />
          </mxGeometry>
        </mxCell>
        <mxCell id="6iKRiyLIUnuLd1ZY3PGh-5" value="" style="shape=tableRow;horizontal=0;startSize=0;swimlaneHead=0;swimlaneBody=0;fillColor=none;collapsible=0;dropTarget=0;points=[[0,0.5],[1,0.5]];portConstraint=eastwest;top=0;left=0;right=0;bottom=0;labelBackgroundColor=none;strokeColor=#DDA15E;fontColor=#FEFAE0;rounded=1;strokeWidth=3;" parent="6iKRiyLIUnuLd1ZY3PGh-1" vertex="1">
          <mxGeometry y="60" width="200" height="30" as="geometry" />
        </mxCell>
        <mxCell id="6iKRiyLIUnuLd1ZY3PGh-6" value="" style="shape=partialRectangle;connectable=0;fillColor=none;top=0;left=0;bottom=0;right=0;editable=1;overflow=hidden;whiteSpace=wrap;html=1;labelBackgroundColor=none;strokeColor=#DDA15E;fontColor=#FEFAE0;rounded=1;strokeWidth=3;" parent="6iKRiyLIUnuLd1ZY3PGh-5" vertex="1">
          <mxGeometry width="30" height="30" as="geometry">
            <mxRectangle width="30" height="30" as="alternateBounds" />
          </mxGeometry>
        </mxCell>
        <mxCell id="6iKRiyLIUnuLd1ZY3PGh-7" value="name varchar 50 not null" style="shape=partialRectangle;connectable=0;fillColor=none;top=0;left=0;bottom=0;right=0;align=left;spacingLeft=6;overflow=hidden;whiteSpace=wrap;html=1;labelBackgroundColor=none;strokeColor=#DDA15E;fontColor=#FEFAE0;rounded=1;strokeWidth=3;" parent="6iKRiyLIUnuLd1ZY3PGh-5" vertex="1">
          <mxGeometry x="30" width="170" height="30" as="geometry">
            <mxRectangle width="170" height="30" as="alternateBounds" />
          </mxGeometry>
        </mxCell>
        <mxCell id="6iKRiyLIUnuLd1ZY3PGh-8" value="" style="shape=tableRow;horizontal=0;startSize=0;swimlaneHead=0;swimlaneBody=0;fillColor=none;collapsible=0;dropTarget=0;points=[[0,0.5],[1,0.5]];portConstraint=eastwest;top=0;left=0;right=0;bottom=0;labelBackgroundColor=none;strokeColor=#DDA15E;fontColor=#FEFAE0;rounded=1;strokeWidth=3;" parent="6iKRiyLIUnuLd1ZY3PGh-1" vertex="1">
          <mxGeometry y="90" width="200" height="30" as="geometry" />
        </mxCell>
        <mxCell id="6iKRiyLIUnuLd1ZY3PGh-9" value="" style="shape=partialRectangle;connectable=0;fillColor=none;top=0;left=0;bottom=0;right=0;editable=1;overflow=hidden;whiteSpace=wrap;html=1;labelBackgroundColor=none;strokeColor=#DDA15E;fontColor=#FEFAE0;rounded=1;strokeWidth=3;" parent="6iKRiyLIUnuLd1ZY3PGh-8" vertex="1">
          <mxGeometry width="30" height="30" as="geometry">
            <mxRectangle width="30" height="30" as="alternateBounds" />
          </mxGeometry>
        </mxCell>
        <mxCell id="6iKRiyLIUnuLd1ZY3PGh-10" value="county varchar 50 not null" style="shape=partialRectangle;connectable=0;fillColor=none;top=0;left=0;bottom=0;right=0;align=left;spacingLeft=6;overflow=hidden;whiteSpace=wrap;html=1;labelBackgroundColor=none;strokeColor=#DDA15E;fontColor=#FEFAE0;rounded=1;strokeWidth=3;" parent="6iKRiyLIUnuLd1ZY3PGh-8" vertex="1">
          <mxGeometry x="30" width="170" height="30" as="geometry">
            <mxRectangle width="170" height="30" as="alternateBounds" />
          </mxGeometry>
        </mxCell>
        <mxCell id="6iKRiyLIUnuLd1ZY3PGh-11" value="" style="shape=tableRow;horizontal=0;startSize=0;swimlaneHead=0;swimlaneBody=0;fillColor=none;collapsible=0;dropTarget=0;points=[[0,0.5],[1,0.5]];portConstraint=eastwest;top=0;left=0;right=0;bottom=0;labelBackgroundColor=none;strokeColor=#DDA15E;fontColor=#FEFAE0;rounded=1;strokeWidth=3;" parent="6iKRiyLIUnuLd1ZY3PGh-1" vertex="1">
          <mxGeometry y="120" width="200" height="30" as="geometry" />
        </mxCell>
        <mxCell id="6iKRiyLIUnuLd1ZY3PGh-12" value="" style="shape=partialRectangle;connectable=0;fillColor=none;top=0;left=0;bottom=0;right=0;editable=1;overflow=hidden;whiteSpace=wrap;html=1;labelBackgroundColor=none;strokeColor=#DDA15E;fontColor=#FEFAE0;rounded=1;strokeWidth=3;" parent="6iKRiyLIUnuLd1ZY3PGh-11" vertex="1">
          <mxGeometry width="30" height="30" as="geometry">
            <mxRectangle width="30" height="30" as="alternateBounds" />
          </mxGeometry>
        </mxCell>
        <mxCell id="6iKRiyLIUnuLd1ZY3PGh-13" value="population decimal (7,2)&amp;nbsp;" style="shape=partialRectangle;connectable=0;fillColor=none;top=0;left=0;bottom=0;right=0;align=left;spacingLeft=6;overflow=hidden;whiteSpace=wrap;html=1;labelBackgroundColor=none;strokeColor=#DDA15E;fontColor=#FEFAE0;rounded=1;strokeWidth=3;" parent="6iKRiyLIUnuLd1ZY3PGh-11" vertex="1">
          <mxGeometry x="30" width="170" height="30" as="geometry">
            <mxRectangle width="170" height="30" as="alternateBounds" />
          </mxGeometry>
        </mxCell>
        <mxCell id="6iKRiyLIUnuLd1ZY3PGh-59" value="" style="shape=tableRow;horizontal=0;startSize=0;swimlaneHead=0;swimlaneBody=0;fillColor=none;collapsible=0;dropTarget=0;points=[[0,0.5],[1,0.5]];portConstraint=eastwest;top=0;left=0;right=0;bottom=0;labelBackgroundColor=none;strokeColor=#DDA15E;fontColor=#FEFAE0;rounded=1;strokeWidth=3;" parent="6iKRiyLIUnuLd1ZY3PGh-1" vertex="1">
          <mxGeometry y="150" width="200" height="30" as="geometry" />
        </mxCell>
        <mxCell id="6iKRiyLIUnuLd1ZY3PGh-60" value="" style="shape=partialRectangle;connectable=0;fillColor=none;top=0;left=0;bottom=0;right=0;editable=1;overflow=hidden;whiteSpace=wrap;html=1;labelBackgroundColor=none;strokeColor=#DDA15E;fontColor=#FEFAE0;rounded=1;strokeWidth=3;" parent="6iKRiyLIUnuLd1ZY3PGh-59" vertex="1">
          <mxGeometry width="30" height="30" as="geometry">
            <mxRectangle width="30" height="30" as="alternateBounds" />
          </mxGeometry>
        </mxCell>
        <mxCell id="6iKRiyLIUnuLd1ZY3PGh-61" value="geometry polygon int not null" style="shape=partialRectangle;connectable=0;fillColor=none;top=0;left=0;bottom=0;right=0;align=left;spacingLeft=6;overflow=hidden;whiteSpace=wrap;html=1;labelBackgroundColor=none;strokeColor=#DDA15E;fontColor=#FEFAE0;rounded=1;strokeWidth=3;" parent="6iKRiyLIUnuLd1ZY3PGh-59" vertex="1">
          <mxGeometry x="30" width="170" height="30" as="geometry">
            <mxRectangle width="170" height="30" as="alternateBounds" />
          </mxGeometry>
        </mxCell>
        <mxCell id="6iKRiyLIUnuLd1ZY3PGh-17" value="river_banks" style="shape=table;startSize=30;container=1;collapsible=1;childLayout=tableLayout;fixedRows=1;rowLines=0;fontStyle=1;align=center;resizeLast=1;html=1;labelBackgroundColor=none;fillColor=#BC6C25;strokeColor=#DDA15E;fontColor=#FEFAE0;rounded=1;strokeWidth=3;" parent="1" vertex="1">
          <mxGeometry x="364" y="498" width="200" height="180" as="geometry" />
        </mxCell>
        <mxCell id="6iKRiyLIUnuLd1ZY3PGh-18" value="" style="shape=tableRow;horizontal=0;startSize=0;swimlaneHead=0;swimlaneBody=0;fillColor=none;collapsible=0;dropTarget=0;points=[[0,0.5],[1,0.5]];portConstraint=eastwest;top=0;left=0;right=0;bottom=1;labelBackgroundColor=none;strokeColor=#DDA15E;fontColor=#FEFAE0;rounded=1;strokeWidth=3;" parent="6iKRiyLIUnuLd1ZY3PGh-17" vertex="1">
          <mxGeometry y="30" width="200" height="30" as="geometry" />
        </mxCell>
        <mxCell id="6iKRiyLIUnuLd1ZY3PGh-19" value="PK" style="shape=partialRectangle;connectable=0;fillColor=none;top=0;left=0;bottom=0;right=0;fontStyle=1;overflow=hidden;whiteSpace=wrap;html=1;labelBackgroundColor=none;strokeColor=#DDA15E;fontColor=#FEFAE0;rounded=1;strokeWidth=3;" parent="6iKRiyLIUnuLd1ZY3PGh-18" vertex="1">
          <mxGeometry width="30" height="30" as="geometry">
            <mxRectangle width="30" height="30" as="alternateBounds" />
          </mxGeometry>
        </mxCell>
        <mxCell id="6iKRiyLIUnuLd1ZY3PGh-20" value="fid serial not null" style="shape=partialRectangle;connectable=0;fillColor=none;top=0;left=0;bottom=0;right=0;align=left;spacingLeft=6;fontStyle=5;overflow=hidden;whiteSpace=wrap;html=1;labelBackgroundColor=none;strokeColor=#DDA15E;fontColor=#FEFAE0;rounded=1;strokeWidth=3;" parent="6iKRiyLIUnuLd1ZY3PGh-18" vertex="1">
          <mxGeometry x="30" width="170" height="30" as="geometry">
            <mxRectangle width="170" height="30" as="alternateBounds" />
          </mxGeometry>
        </mxCell>
        <mxCell id="6iKRiyLIUnuLd1ZY3PGh-211" value="" style="shape=tableRow;horizontal=0;startSize=0;swimlaneHead=0;swimlaneBody=0;fillColor=none;collapsible=0;dropTarget=0;points=[[0,0.5],[1,0.5]];portConstraint=eastwest;top=0;left=0;right=0;bottom=0;labelBackgroundColor=none;strokeColor=#DDA15E;fontColor=#FEFAE0;rounded=1;strokeWidth=3;" parent="6iKRiyLIUnuLd1ZY3PGh-17" vertex="1">
          <mxGeometry y="60" width="200" height="30" as="geometry" />
        </mxCell>
        <mxCell id="6iKRiyLIUnuLd1ZY3PGh-212" value="" style="shape=partialRectangle;connectable=0;fillColor=none;top=0;left=0;bottom=0;right=0;editable=1;overflow=hidden;whiteSpace=wrap;html=1;labelBackgroundColor=none;strokeColor=#DDA15E;fontColor=#FEFAE0;rounded=1;strokeWidth=3;" parent="6iKRiyLIUnuLd1ZY3PGh-211" vertex="1">
          <mxGeometry width="30" height="30" as="geometry">
            <mxRectangle width="30" height="30" as="alternateBounds" />
          </mxGeometry>
        </mxCell>
        <mxCell id="6iKRiyLIUnuLd1ZY3PGh-213" value="name varchar 50 not null" style="shape=partialRectangle;connectable=0;fillColor=none;top=0;left=0;bottom=0;right=0;align=left;spacingLeft=6;overflow=hidden;whiteSpace=wrap;html=1;labelBackgroundColor=none;strokeColor=#DDA15E;fontColor=#FEFAE0;rounded=1;strokeWidth=3;" parent="6iKRiyLIUnuLd1ZY3PGh-211" vertex="1">
          <mxGeometry x="30" width="170" height="30" as="geometry">
            <mxRectangle width="170" height="30" as="alternateBounds" />
          </mxGeometry>
        </mxCell>
        <mxCell id="6iKRiyLIUnuLd1ZY3PGh-24" value="" style="shape=tableRow;horizontal=0;startSize=0;swimlaneHead=0;swimlaneBody=0;fillColor=none;collapsible=0;dropTarget=0;points=[[0,0.5],[1,0.5]];portConstraint=eastwest;top=0;left=0;right=0;bottom=0;labelBackgroundColor=none;strokeColor=#DDA15E;fontColor=#FEFAE0;rounded=1;strokeWidth=3;" parent="6iKRiyLIUnuLd1ZY3PGh-17" vertex="1">
          <mxGeometry y="90" width="200" height="30" as="geometry" />
        </mxCell>
        <mxCell id="6iKRiyLIUnuLd1ZY3PGh-25" value="" style="shape=partialRectangle;connectable=0;fillColor=none;top=0;left=0;bottom=0;right=0;editable=1;overflow=hidden;whiteSpace=wrap;html=1;labelBackgroundColor=none;strokeColor=#DDA15E;fontColor=#FEFAE0;rounded=1;strokeWidth=3;" parent="6iKRiyLIUnuLd1ZY3PGh-24" vertex="1">
          <mxGeometry width="30" height="30" as="geometry">
            <mxRectangle width="30" height="30" as="alternateBounds" />
          </mxGeometry>
        </mxCell>
        <mxCell id="6iKRiyLIUnuLd1ZY3PGh-26" value="geometry linestring not null" style="shape=partialRectangle;connectable=0;fillColor=none;top=0;left=0;bottom=0;right=0;align=left;spacingLeft=6;overflow=hidden;whiteSpace=wrap;html=1;labelBackgroundColor=none;strokeColor=#DDA15E;fontColor=#FEFAE0;rounded=1;strokeWidth=3;" parent="6iKRiyLIUnuLd1ZY3PGh-24" vertex="1">
          <mxGeometry x="30" width="170" height="30" as="geometry">
            <mxRectangle width="170" height="30" as="alternateBounds" />
          </mxGeometry>
        </mxCell>
        <mxCell id="6iKRiyLIUnuLd1ZY3PGh-27" value="" style="shape=tableRow;horizontal=0;startSize=0;swimlaneHead=0;swimlaneBody=0;fillColor=none;collapsible=0;dropTarget=0;points=[[0,0.5],[1,0.5]];portConstraint=eastwest;top=0;left=0;right=0;bottom=0;labelBackgroundColor=none;strokeColor=#DDA15E;fontColor=#FEFAE0;rounded=1;strokeWidth=3;" parent="6iKRiyLIUnuLd1ZY3PGh-17" vertex="1">
          <mxGeometry y="120" width="200" height="30" as="geometry" />
        </mxCell>
        <mxCell id="6iKRiyLIUnuLd1ZY3PGh-28" value="" style="shape=partialRectangle;connectable=0;fillColor=none;top=0;left=0;bottom=0;right=0;editable=1;overflow=hidden;whiteSpace=wrap;html=1;labelBackgroundColor=none;strokeColor=#DDA15E;fontColor=#FEFAE0;rounded=1;strokeWidth=3;" parent="6iKRiyLIUnuLd1ZY3PGh-27" vertex="1">
          <mxGeometry width="30" height="30" as="geometry">
            <mxRectangle width="30" height="30" as="alternateBounds" />
          </mxGeometry>
        </mxCell>
        <mxCell id="6iKRiyLIUnuLd1ZY3PGh-29" value="description text" style="shape=partialRectangle;connectable=0;fillColor=none;top=0;left=0;bottom=0;right=0;align=left;spacingLeft=6;overflow=hidden;whiteSpace=wrap;html=1;labelBackgroundColor=none;strokeColor=#DDA15E;fontColor=#FEFAE0;rounded=1;strokeWidth=3;" parent="6iKRiyLIUnuLd1ZY3PGh-27" vertex="1">
          <mxGeometry x="30" width="170" height="30" as="geometry">
            <mxRectangle width="170" height="30" as="alternateBounds" />
          </mxGeometry>
        </mxCell>
        <mxCell id="6iKRiyLIUnuLd1ZY3PGh-56" value="" style="shape=tableRow;horizontal=0;startSize=0;swimlaneHead=0;swimlaneBody=0;fillColor=none;collapsible=0;dropTarget=0;points=[[0,0.5],[1,0.5]];portConstraint=eastwest;top=0;left=0;right=0;bottom=1;labelBackgroundColor=none;strokeColor=#DDA15E;fontColor=#FEFAE0;rounded=1;strokeWidth=3;" parent="6iKRiyLIUnuLd1ZY3PGh-17" vertex="1">
          <mxGeometry y="150" width="200" height="30" as="geometry" />
        </mxCell>
        <mxCell id="6iKRiyLIUnuLd1ZY3PGh-57" value="FK" style="shape=partialRectangle;connectable=0;fillColor=none;top=0;left=0;bottom=0;right=0;fontStyle=1;overflow=hidden;whiteSpace=wrap;html=1;labelBackgroundColor=none;strokeColor=#DDA15E;fontColor=#FEFAE0;rounded=1;strokeWidth=3;" parent="6iKRiyLIUnuLd1ZY3PGh-56" vertex="1">
          <mxGeometry width="30" height="30" as="geometry">
            <mxRectangle width="30" height="30" as="alternateBounds" />
          </mxGeometry>
        </mxCell>
        <mxCell id="6iKRiyLIUnuLd1ZY3PGh-58" value="fid_city int not null" style="shape=partialRectangle;connectable=0;fillColor=none;top=0;left=0;bottom=0;right=0;align=left;spacingLeft=6;fontStyle=5;overflow=hidden;whiteSpace=wrap;html=1;labelBackgroundColor=none;strokeColor=#DDA15E;fontColor=#FEFAE0;rounded=1;strokeWidth=3;" parent="6iKRiyLIUnuLd1ZY3PGh-56" vertex="1">
          <mxGeometry x="30" width="170" height="30" as="geometry">
            <mxRectangle width="170" height="30" as="alternateBounds" />
          </mxGeometry>
        </mxCell>
        <mxCell id="6iKRiyLIUnuLd1ZY3PGh-62" value="" style="edgeStyle=elbowEdgeStyle;fontSize=12;html=1;endArrow=ERmandOne;startArrow=ERmandOne;rounded=1;exitX=0;exitY=0.5;exitDx=0;exitDy=0;entryX=0;entryY=0.5;entryDx=0;entryDy=0;labelBackgroundColor=none;strokeColor=#DDA15E;fontColor=default;strokeWidth=3;" parent="1" source="6iKRiyLIUnuLd1ZY3PGh-56" target="6iKRiyLIUnuLd1ZY3PGh-2" edge="1">
          <mxGeometry width="100" height="100" relative="1" as="geometry">
            <mxPoint x="334" y="698" as="sourcePoint" />
            <mxPoint x="364" y="348" as="targetPoint" />
            <Array as="points">
              <mxPoint x="334" y="518" />
            </Array>
          </mxGeometry>
        </mxCell>
        <mxCell id="6iKRiyLIUnuLd1ZY3PGh-79" value="landuse" style="shape=table;startSize=30;container=1;collapsible=1;childLayout=tableLayout;fixedRows=1;rowLines=0;fontStyle=1;align=center;resizeLast=1;html=1;labelBackgroundColor=none;fillColor=#BC6C25;strokeColor=#DDA15E;fontColor=#FEFAE0;rounded=1;strokeWidth=3;" parent="1" vertex="1">
          <mxGeometry x="-426" y="788" width="200" height="210" as="geometry" />
        </mxCell>
        <mxCell id="6iKRiyLIUnuLd1ZY3PGh-80" value="" style="shape=tableRow;horizontal=0;startSize=0;swimlaneHead=0;swimlaneBody=0;fillColor=none;collapsible=0;dropTarget=0;points=[[0,0.5],[1,0.5]];portConstraint=eastwest;top=0;left=0;right=0;bottom=1;labelBackgroundColor=none;strokeColor=#DDA15E;fontColor=#FEFAE0;rounded=1;strokeWidth=3;" parent="6iKRiyLIUnuLd1ZY3PGh-79" vertex="1">
          <mxGeometry y="30" width="200" height="30" as="geometry" />
        </mxCell>
        <mxCell id="6iKRiyLIUnuLd1ZY3PGh-81" value="PK" style="shape=partialRectangle;connectable=0;fillColor=none;top=0;left=0;bottom=0;right=0;fontStyle=1;overflow=hidden;whiteSpace=wrap;html=1;labelBackgroundColor=none;strokeColor=#DDA15E;fontColor=#FEFAE0;rounded=1;strokeWidth=3;" parent="6iKRiyLIUnuLd1ZY3PGh-80" vertex="1">
          <mxGeometry width="30" height="30" as="geometry">
            <mxRectangle width="30" height="30" as="alternateBounds" />
          </mxGeometry>
        </mxCell>
        <mxCell id="6iKRiyLIUnuLd1ZY3PGh-82" value="fid serial not null" style="shape=partialRectangle;connectable=0;fillColor=none;top=0;left=0;bottom=0;right=0;align=left;spacingLeft=6;fontStyle=5;overflow=hidden;whiteSpace=wrap;html=1;labelBackgroundColor=none;strokeColor=#DDA15E;fontColor=#FEFAE0;rounded=1;strokeWidth=3;" parent="6iKRiyLIUnuLd1ZY3PGh-80" vertex="1">
          <mxGeometry x="30" width="170" height="30" as="geometry">
            <mxRectangle width="170" height="30" as="alternateBounds" />
          </mxGeometry>
        </mxCell>
        <mxCell id="6iKRiyLIUnuLd1ZY3PGh-83" value="" style="shape=tableRow;horizontal=0;startSize=0;swimlaneHead=0;swimlaneBody=0;fillColor=none;collapsible=0;dropTarget=0;points=[[0,0.5],[1,0.5]];portConstraint=eastwest;top=0;left=0;right=0;bottom=0;labelBackgroundColor=none;strokeColor=#DDA15E;fontColor=#FEFAE0;rounded=1;strokeWidth=3;" parent="6iKRiyLIUnuLd1ZY3PGh-79" vertex="1">
          <mxGeometry y="60" width="200" height="30" as="geometry" />
        </mxCell>
        <mxCell id="6iKRiyLIUnuLd1ZY3PGh-84" value="" style="shape=partialRectangle;connectable=0;fillColor=none;top=0;left=0;bottom=0;right=0;editable=1;overflow=hidden;whiteSpace=wrap;html=1;labelBackgroundColor=none;strokeColor=#DDA15E;fontColor=#FEFAE0;rounded=1;strokeWidth=3;" parent="6iKRiyLIUnuLd1ZY3PGh-83" vertex="1">
          <mxGeometry width="30" height="30" as="geometry">
            <mxRectangle width="30" height="30" as="alternateBounds" />
          </mxGeometry>
        </mxCell>
        <mxCell id="6iKRiyLIUnuLd1ZY3PGh-85" value="name varchar 50 not null" style="shape=partialRectangle;connectable=0;fillColor=none;top=0;left=0;bottom=0;right=0;align=left;spacingLeft=6;overflow=hidden;whiteSpace=wrap;html=1;labelBackgroundColor=none;strokeColor=#DDA15E;fontColor=#FEFAE0;rounded=1;strokeWidth=3;" parent="6iKRiyLIUnuLd1ZY3PGh-83" vertex="1">
          <mxGeometry x="30" width="170" height="30" as="geometry">
            <mxRectangle width="170" height="30" as="alternateBounds" />
          </mxGeometry>
        </mxCell>
        <mxCell id="6iKRiyLIUnuLd1ZY3PGh-86" value="" style="shape=tableRow;horizontal=0;startSize=0;swimlaneHead=0;swimlaneBody=0;fillColor=none;collapsible=0;dropTarget=0;points=[[0,0.5],[1,0.5]];portConstraint=eastwest;top=0;left=0;right=0;bottom=0;labelBackgroundColor=none;strokeColor=#DDA15E;fontColor=#FEFAE0;rounded=1;strokeWidth=3;" parent="6iKRiyLIUnuLd1ZY3PGh-79" vertex="1">
          <mxGeometry y="90" width="200" height="30" as="geometry" />
        </mxCell>
        <mxCell id="6iKRiyLIUnuLd1ZY3PGh-87" value="" style="shape=partialRectangle;connectable=0;fillColor=none;top=0;left=0;bottom=0;right=0;editable=1;overflow=hidden;whiteSpace=wrap;html=1;labelBackgroundColor=none;strokeColor=#DDA15E;fontColor=#FEFAE0;rounded=1;strokeWidth=3;" parent="6iKRiyLIUnuLd1ZY3PGh-86" vertex="1">
          <mxGeometry width="30" height="30" as="geometry">
            <mxRectangle width="30" height="30" as="alternateBounds" />
          </mxGeometry>
        </mxCell>
        <mxCell id="6iKRiyLIUnuLd1ZY3PGh-88" value="geometry polygon not null" style="shape=partialRectangle;connectable=0;fillColor=none;top=0;left=0;bottom=0;right=0;align=left;spacingLeft=6;overflow=hidden;whiteSpace=wrap;html=1;labelBackgroundColor=none;strokeColor=#DDA15E;fontColor=#FEFAE0;rounded=1;strokeWidth=3;" parent="6iKRiyLIUnuLd1ZY3PGh-86" vertex="1">
          <mxGeometry x="30" width="170" height="30" as="geometry">
            <mxRectangle width="170" height="30" as="alternateBounds" />
          </mxGeometry>
        </mxCell>
        <mxCell id="6iKRiyLIUnuLd1ZY3PGh-89" value="" style="shape=tableRow;horizontal=0;startSize=0;swimlaneHead=0;swimlaneBody=0;fillColor=none;collapsible=0;dropTarget=0;points=[[0,0.5],[1,0.5]];portConstraint=eastwest;top=0;left=0;right=0;bottom=0;labelBackgroundColor=none;strokeColor=#DDA15E;fontColor=#FEFAE0;rounded=1;strokeWidth=3;" parent="6iKRiyLIUnuLd1ZY3PGh-79" vertex="1">
          <mxGeometry y="120" width="200" height="30" as="geometry" />
        </mxCell>
        <mxCell id="6iKRiyLIUnuLd1ZY3PGh-90" value="" style="shape=partialRectangle;connectable=0;fillColor=none;top=0;left=0;bottom=0;right=0;editable=1;overflow=hidden;whiteSpace=wrap;html=1;labelBackgroundColor=none;strokeColor=#DDA15E;fontColor=#FEFAE0;rounded=1;strokeWidth=3;" parent="6iKRiyLIUnuLd1ZY3PGh-89" vertex="1">
          <mxGeometry width="30" height="30" as="geometry">
            <mxRectangle width="30" height="30" as="alternateBounds" />
          </mxGeometry>
        </mxCell>
        <mxCell id="6iKRiyLIUnuLd1ZY3PGh-91" value="owner varchar 100" style="shape=partialRectangle;connectable=0;fillColor=none;top=0;left=0;bottom=0;right=0;align=left;spacingLeft=6;overflow=hidden;whiteSpace=wrap;html=1;labelBackgroundColor=none;strokeColor=#DDA15E;fontColor=#FEFAE0;rounded=1;strokeWidth=3;" parent="6iKRiyLIUnuLd1ZY3PGh-89" vertex="1">
          <mxGeometry x="30" width="170" height="30" as="geometry">
            <mxRectangle width="170" height="30" as="alternateBounds" />
          </mxGeometry>
        </mxCell>
        <mxCell id="6iKRiyLIUnuLd1ZY3PGh-92" value="" style="shape=tableRow;horizontal=0;startSize=0;swimlaneHead=0;swimlaneBody=0;fillColor=none;collapsible=0;dropTarget=0;points=[[0,0.5],[1,0.5]];portConstraint=eastwest;top=0;left=0;right=0;bottom=1;labelBackgroundColor=none;strokeColor=#DDA15E;fontColor=#FEFAE0;rounded=1;strokeWidth=3;" parent="6iKRiyLIUnuLd1ZY3PGh-79" vertex="1">
          <mxGeometry y="150" width="200" height="30" as="geometry" />
        </mxCell>
        <mxCell id="6iKRiyLIUnuLd1ZY3PGh-93" value="FK" style="shape=partialRectangle;connectable=0;fillColor=none;top=0;left=0;bottom=0;right=0;fontStyle=1;overflow=hidden;whiteSpace=wrap;html=1;labelBackgroundColor=none;strokeColor=#DDA15E;fontColor=#FEFAE0;rounded=1;strokeWidth=3;" parent="6iKRiyLIUnuLd1ZY3PGh-92" vertex="1">
          <mxGeometry width="30" height="30" as="geometry">
            <mxRectangle width="30" height="30" as="alternateBounds" />
          </mxGeometry>
        </mxCell>
        <mxCell id="6iKRiyLIUnuLd1ZY3PGh-94" value="fid_river_banks int not null" style="shape=partialRectangle;connectable=0;fillColor=none;top=0;left=0;bottom=0;right=0;align=left;spacingLeft=6;fontStyle=5;overflow=hidden;whiteSpace=wrap;html=1;labelBackgroundColor=none;strokeColor=#DDA15E;fontColor=#FEFAE0;rounded=1;strokeWidth=3;" parent="6iKRiyLIUnuLd1ZY3PGh-92" vertex="1">
          <mxGeometry x="30" width="170" height="30" as="geometry">
            <mxRectangle width="170" height="30" as="alternateBounds" />
          </mxGeometry>
        </mxCell>
        <mxCell id="6iKRiyLIUnuLd1ZY3PGh-95" value="" style="shape=tableRow;horizontal=0;startSize=0;swimlaneHead=0;swimlaneBody=0;fillColor=none;collapsible=0;dropTarget=0;points=[[0,0.5],[1,0.5]];portConstraint=eastwest;top=0;left=0;right=0;bottom=1;labelBackgroundColor=none;strokeColor=#DDA15E;fontColor=#FEFAE0;rounded=1;strokeWidth=3;" parent="6iKRiyLIUnuLd1ZY3PGh-79" vertex="1">
          <mxGeometry y="180" width="200" height="30" as="geometry" />
        </mxCell>
        <mxCell id="6iKRiyLIUnuLd1ZY3PGh-96" value="FK" style="shape=partialRectangle;connectable=0;fillColor=none;top=0;left=0;bottom=0;right=0;fontStyle=1;overflow=hidden;whiteSpace=wrap;html=1;labelBackgroundColor=none;strokeColor=#DDA15E;fontColor=#FEFAE0;rounded=1;strokeWidth=3;" parent="6iKRiyLIUnuLd1ZY3PGh-95" vertex="1">
          <mxGeometry width="30" height="30" as="geometry">
            <mxRectangle width="30" height="30" as="alternateBounds" />
          </mxGeometry>
        </mxCell>
        <mxCell id="6iKRiyLIUnuLd1ZY3PGh-97" value="id_type_landuse int not null" style="shape=partialRectangle;connectable=0;fillColor=none;top=0;left=0;bottom=0;right=0;align=left;spacingLeft=6;fontStyle=5;overflow=hidden;whiteSpace=wrap;html=1;labelBackgroundColor=none;strokeColor=#DDA15E;fontColor=#FEFAE0;rounded=1;strokeWidth=3;" parent="6iKRiyLIUnuLd1ZY3PGh-95" vertex="1">
          <mxGeometry x="30" width="170" height="30" as="geometry">
            <mxRectangle width="170" height="30" as="alternateBounds" />
          </mxGeometry>
        </mxCell>
        <mxCell id="6iKRiyLIUnuLd1ZY3PGh-101" value="" style="edgeStyle=elbowEdgeStyle;fontSize=12;html=1;endArrow=ERoneToMany;rounded=1;entryX=0;entryY=0.5;entryDx=0;entryDy=0;exitX=0;exitY=0.5;exitDx=0;exitDy=0;labelBackgroundColor=none;strokeColor=#DDA15E;fontColor=default;strokeWidth=3;" parent="1" source="6iKRiyLIUnuLd1ZY3PGh-18" target="6iKRiyLIUnuLd1ZY3PGh-92" edge="1">
          <mxGeometry width="100" height="100" relative="1" as="geometry">
            <mxPoint x="364" y="578" as="sourcePoint" />
            <mxPoint x="-436" y="888" as="targetPoint" />
            <Array as="points">
              <mxPoint x="-466" y="723" />
            </Array>
          </mxGeometry>
        </mxCell>
        <mxCell id="6iKRiyLIUnuLd1ZY3PGh-102" value="type_landuse" style="shape=table;startSize=30;container=1;collapsible=1;childLayout=tableLayout;fixedRows=1;rowLines=0;fontStyle=1;align=center;resizeLast=1;html=1;labelBackgroundColor=none;fillColor=#BC6C25;strokeColor=#DDA15E;fontColor=#FEFAE0;rounded=1;strokeWidth=3;" parent="1" vertex="1">
          <mxGeometry x="-426" y="1068" width="200" height="120" as="geometry" />
        </mxCell>
        <mxCell id="6iKRiyLIUnuLd1ZY3PGh-103" value="" style="shape=tableRow;horizontal=0;startSize=0;swimlaneHead=0;swimlaneBody=0;fillColor=none;collapsible=0;dropTarget=0;points=[[0,0.5],[1,0.5]];portConstraint=eastwest;top=0;left=0;right=0;bottom=1;labelBackgroundColor=none;strokeColor=#DDA15E;fontColor=#FEFAE0;rounded=1;strokeWidth=3;" parent="6iKRiyLIUnuLd1ZY3PGh-102" vertex="1">
          <mxGeometry y="30" width="200" height="30" as="geometry" />
        </mxCell>
        <mxCell id="6iKRiyLIUnuLd1ZY3PGh-104" value="PK" style="shape=partialRectangle;connectable=0;fillColor=none;top=0;left=0;bottom=0;right=0;fontStyle=1;overflow=hidden;whiteSpace=wrap;html=1;labelBackgroundColor=none;strokeColor=#DDA15E;fontColor=#FEFAE0;rounded=1;strokeWidth=3;" parent="6iKRiyLIUnuLd1ZY3PGh-103" vertex="1">
          <mxGeometry width="30" height="30" as="geometry">
            <mxRectangle width="30" height="30" as="alternateBounds" />
          </mxGeometry>
        </mxCell>
        <mxCell id="6iKRiyLIUnuLd1ZY3PGh-105" value="id serial not null" style="shape=partialRectangle;connectable=0;fillColor=none;top=0;left=0;bottom=0;right=0;align=left;spacingLeft=6;fontStyle=5;overflow=hidden;whiteSpace=wrap;html=1;labelBackgroundColor=none;strokeColor=#DDA15E;fontColor=#FEFAE0;rounded=1;strokeWidth=3;" parent="6iKRiyLIUnuLd1ZY3PGh-103" vertex="1">
          <mxGeometry x="30" width="170" height="30" as="geometry">
            <mxRectangle width="170" height="30" as="alternateBounds" />
          </mxGeometry>
        </mxCell>
        <mxCell id="6iKRiyLIUnuLd1ZY3PGh-106" value="" style="shape=tableRow;horizontal=0;startSize=0;swimlaneHead=0;swimlaneBody=0;fillColor=none;collapsible=0;dropTarget=0;points=[[0,0.5],[1,0.5]];portConstraint=eastwest;top=0;left=0;right=0;bottom=0;labelBackgroundColor=none;strokeColor=#DDA15E;fontColor=#FEFAE0;rounded=1;strokeWidth=3;" parent="6iKRiyLIUnuLd1ZY3PGh-102" vertex="1">
          <mxGeometry y="60" width="200" height="30" as="geometry" />
        </mxCell>
        <mxCell id="6iKRiyLIUnuLd1ZY3PGh-107" value="" style="shape=partialRectangle;connectable=0;fillColor=none;top=0;left=0;bottom=0;right=0;editable=1;overflow=hidden;whiteSpace=wrap;html=1;labelBackgroundColor=none;strokeColor=#DDA15E;fontColor=#FEFAE0;rounded=1;strokeWidth=3;" parent="6iKRiyLIUnuLd1ZY3PGh-106" vertex="1">
          <mxGeometry width="30" height="30" as="geometry">
            <mxRectangle width="30" height="30" as="alternateBounds" />
          </mxGeometry>
        </mxCell>
        <mxCell id="6iKRiyLIUnuLd1ZY3PGh-108" value="type varchar 50 not null" style="shape=partialRectangle;connectable=0;fillColor=none;top=0;left=0;bottom=0;right=0;align=left;spacingLeft=6;overflow=hidden;whiteSpace=wrap;html=1;labelBackgroundColor=none;strokeColor=#DDA15E;fontColor=#FEFAE0;rounded=1;strokeWidth=3;" parent="6iKRiyLIUnuLd1ZY3PGh-106" vertex="1">
          <mxGeometry x="30" width="170" height="30" as="geometry">
            <mxRectangle width="170" height="30" as="alternateBounds" />
          </mxGeometry>
        </mxCell>
        <mxCell id="6iKRiyLIUnuLd1ZY3PGh-109" value="" style="shape=tableRow;horizontal=0;startSize=0;swimlaneHead=0;swimlaneBody=0;fillColor=none;collapsible=0;dropTarget=0;points=[[0,0.5],[1,0.5]];portConstraint=eastwest;top=0;left=0;right=0;bottom=0;labelBackgroundColor=none;strokeColor=#DDA15E;fontColor=#FEFAE0;rounded=1;strokeWidth=3;" parent="6iKRiyLIUnuLd1ZY3PGh-102" vertex="1">
          <mxGeometry y="90" width="200" height="30" as="geometry" />
        </mxCell>
        <mxCell id="6iKRiyLIUnuLd1ZY3PGh-110" value="" style="shape=partialRectangle;connectable=0;fillColor=none;top=0;left=0;bottom=0;right=0;editable=1;overflow=hidden;whiteSpace=wrap;html=1;labelBackgroundColor=none;strokeColor=#DDA15E;fontColor=#FEFAE0;rounded=1;strokeWidth=3;" parent="6iKRiyLIUnuLd1ZY3PGh-109" vertex="1">
          <mxGeometry width="30" height="30" as="geometry">
            <mxRectangle width="30" height="30" as="alternateBounds" />
          </mxGeometry>
        </mxCell>
        <mxCell id="6iKRiyLIUnuLd1ZY3PGh-111" value="building_nr int&amp;nbsp;" style="shape=partialRectangle;connectable=0;fillColor=none;top=0;left=0;bottom=0;right=0;align=left;spacingLeft=6;overflow=hidden;whiteSpace=wrap;html=1;labelBackgroundColor=none;strokeColor=#DDA15E;fontColor=#FEFAE0;rounded=1;strokeWidth=3;" parent="6iKRiyLIUnuLd1ZY3PGh-109" vertex="1">
          <mxGeometry x="30" width="170" height="30" as="geometry">
            <mxRectangle width="170" height="30" as="alternateBounds" />
          </mxGeometry>
        </mxCell>
        <mxCell id="6iKRiyLIUnuLd1ZY3PGh-121" value="" style="edgeStyle=elbowEdgeStyle;fontSize=12;html=1;endArrow=ERmany;rounded=1;entryX=0;entryY=0.5;entryDx=0;entryDy=0;labelBackgroundColor=none;strokeColor=#DDA15E;fontColor=default;strokeWidth=3;" parent="1" target="6iKRiyLIUnuLd1ZY3PGh-95" edge="1">
          <mxGeometry width="100" height="100" relative="1" as="geometry">
            <mxPoint x="-426" y="1118" as="sourcePoint" />
            <mxPoint x="-436" y="1008" as="targetPoint" />
            <Array as="points">
              <mxPoint x="-466" y="1048" />
            </Array>
          </mxGeometry>
        </mxCell>
        <mxCell id="6iKRiyLIUnuLd1ZY3PGh-150" value="trees" style="shape=table;startSize=30;container=1;collapsible=1;childLayout=tableLayout;fixedRows=1;rowLines=0;fontStyle=1;align=center;resizeLast=1;html=1;labelBackgroundColor=none;fillColor=#BC6C25;strokeColor=#DDA15E;fontColor=#FEFAE0;rounded=1;strokeWidth=3;" parent="1" vertex="1">
          <mxGeometry x="-136" y="788" width="200" height="210" as="geometry" />
        </mxCell>
        <mxCell id="6iKRiyLIUnuLd1ZY3PGh-151" value="" style="shape=tableRow;horizontal=0;startSize=0;swimlaneHead=0;swimlaneBody=0;fillColor=none;collapsible=0;dropTarget=0;points=[[0,0.5],[1,0.5]];portConstraint=eastwest;top=0;left=0;right=0;bottom=1;labelBackgroundColor=none;strokeColor=#DDA15E;fontColor=#FEFAE0;rounded=1;strokeWidth=3;" parent="6iKRiyLIUnuLd1ZY3PGh-150" vertex="1">
          <mxGeometry y="30" width="200" height="30" as="geometry" />
        </mxCell>
        <mxCell id="6iKRiyLIUnuLd1ZY3PGh-152" value="PK" style="shape=partialRectangle;connectable=0;fillColor=none;top=0;left=0;bottom=0;right=0;fontStyle=1;overflow=hidden;whiteSpace=wrap;html=1;labelBackgroundColor=none;strokeColor=#DDA15E;fontColor=#FEFAE0;rounded=1;strokeWidth=3;" parent="6iKRiyLIUnuLd1ZY3PGh-151" vertex="1">
          <mxGeometry width="30" height="30" as="geometry">
            <mxRectangle width="30" height="30" as="alternateBounds" />
          </mxGeometry>
        </mxCell>
        <mxCell id="6iKRiyLIUnuLd1ZY3PGh-153" value="fid serial not null" style="shape=partialRectangle;connectable=0;fillColor=none;top=0;left=0;bottom=0;right=0;align=left;spacingLeft=6;fontStyle=5;overflow=hidden;whiteSpace=wrap;html=1;labelBackgroundColor=none;strokeColor=#DDA15E;fontColor=#FEFAE0;rounded=1;strokeWidth=3;" parent="6iKRiyLIUnuLd1ZY3PGh-151" vertex="1">
          <mxGeometry x="30" width="170" height="30" as="geometry">
            <mxRectangle width="170" height="30" as="alternateBounds" />
          </mxGeometry>
        </mxCell>
        <mxCell id="6iKRiyLIUnuLd1ZY3PGh-154" value="" style="shape=tableRow;horizontal=0;startSize=0;swimlaneHead=0;swimlaneBody=0;fillColor=none;collapsible=0;dropTarget=0;points=[[0,0.5],[1,0.5]];portConstraint=eastwest;top=0;left=0;right=0;bottom=0;labelBackgroundColor=none;strokeColor=#DDA15E;fontColor=#FEFAE0;rounded=1;strokeWidth=3;" parent="6iKRiyLIUnuLd1ZY3PGh-150" vertex="1">
          <mxGeometry y="60" width="200" height="30" as="geometry" />
        </mxCell>
        <mxCell id="6iKRiyLIUnuLd1ZY3PGh-155" value="" style="shape=partialRectangle;connectable=0;fillColor=none;top=0;left=0;bottom=0;right=0;editable=1;overflow=hidden;whiteSpace=wrap;html=1;labelBackgroundColor=none;strokeColor=#DDA15E;fontColor=#FEFAE0;rounded=1;strokeWidth=3;" parent="6iKRiyLIUnuLd1ZY3PGh-154" vertex="1">
          <mxGeometry width="30" height="30" as="geometry">
            <mxRectangle width="30" height="30" as="alternateBounds" />
          </mxGeometry>
        </mxCell>
        <mxCell id="6iKRiyLIUnuLd1ZY3PGh-156" value="height float not null" style="shape=partialRectangle;connectable=0;fillColor=none;top=0;left=0;bottom=0;right=0;align=left;spacingLeft=6;overflow=hidden;whiteSpace=wrap;html=1;labelBackgroundColor=none;strokeColor=#DDA15E;fontColor=#FEFAE0;rounded=1;strokeWidth=3;" parent="6iKRiyLIUnuLd1ZY3PGh-154" vertex="1">
          <mxGeometry x="30" width="170" height="30" as="geometry">
            <mxRectangle width="170" height="30" as="alternateBounds" />
          </mxGeometry>
        </mxCell>
        <mxCell id="6iKRiyLIUnuLd1ZY3PGh-157" value="" style="shape=tableRow;horizontal=0;startSize=0;swimlaneHead=0;swimlaneBody=0;fillColor=none;collapsible=0;dropTarget=0;points=[[0,0.5],[1,0.5]];portConstraint=eastwest;top=0;left=0;right=0;bottom=0;labelBackgroundColor=none;strokeColor=#DDA15E;fontColor=#FEFAE0;rounded=1;strokeWidth=3;" parent="6iKRiyLIUnuLd1ZY3PGh-150" vertex="1">
          <mxGeometry y="90" width="200" height="30" as="geometry" />
        </mxCell>
        <mxCell id="6iKRiyLIUnuLd1ZY3PGh-158" value="" style="shape=partialRectangle;connectable=0;fillColor=none;top=0;left=0;bottom=0;right=0;editable=1;overflow=hidden;whiteSpace=wrap;html=1;labelBackgroundColor=none;strokeColor=#DDA15E;fontColor=#FEFAE0;rounded=1;strokeWidth=3;" parent="6iKRiyLIUnuLd1ZY3PGh-157" vertex="1">
          <mxGeometry width="30" height="30" as="geometry">
            <mxRectangle width="30" height="30" as="alternateBounds" />
          </mxGeometry>
        </mxCell>
        <mxCell id="6iKRiyLIUnuLd1ZY3PGh-159" value="geometry point not null" style="shape=partialRectangle;connectable=0;fillColor=none;top=0;left=0;bottom=0;right=0;align=left;spacingLeft=6;overflow=hidden;whiteSpace=wrap;html=1;labelBackgroundColor=none;strokeColor=#DDA15E;fontColor=#FEFAE0;rounded=1;strokeWidth=3;" parent="6iKRiyLIUnuLd1ZY3PGh-157" vertex="1">
          <mxGeometry x="30" width="170" height="30" as="geometry">
            <mxRectangle width="170" height="30" as="alternateBounds" />
          </mxGeometry>
        </mxCell>
        <mxCell id="6iKRiyLIUnuLd1ZY3PGh-160" value="" style="shape=tableRow;horizontal=0;startSize=0;swimlaneHead=0;swimlaneBody=0;fillColor=none;collapsible=0;dropTarget=0;points=[[0,0.5],[1,0.5]];portConstraint=eastwest;top=0;left=0;right=0;bottom=0;labelBackgroundColor=none;strokeColor=#DDA15E;fontColor=#FEFAE0;rounded=1;strokeWidth=3;" parent="6iKRiyLIUnuLd1ZY3PGh-150" vertex="1">
          <mxGeometry y="120" width="200" height="30" as="geometry" />
        </mxCell>
        <mxCell id="6iKRiyLIUnuLd1ZY3PGh-161" value="" style="shape=partialRectangle;connectable=0;fillColor=none;top=0;left=0;bottom=0;right=0;editable=1;overflow=hidden;whiteSpace=wrap;html=1;labelBackgroundColor=none;strokeColor=#DDA15E;fontColor=#FEFAE0;rounded=1;strokeWidth=3;" parent="6iKRiyLIUnuLd1ZY3PGh-160" vertex="1">
          <mxGeometry width="30" height="30" as="geometry">
            <mxRectangle width="30" height="30" as="alternateBounds" />
          </mxGeometry>
        </mxCell>
        <mxCell id="6iKRiyLIUnuLd1ZY3PGh-162" value="circumference float" style="shape=partialRectangle;connectable=0;fillColor=none;top=0;left=0;bottom=0;right=0;align=left;spacingLeft=6;overflow=hidden;whiteSpace=wrap;html=1;labelBackgroundColor=none;strokeColor=#DDA15E;fontColor=#FEFAE0;rounded=1;strokeWidth=3;" parent="6iKRiyLIUnuLd1ZY3PGh-160" vertex="1">
          <mxGeometry x="30" width="170" height="30" as="geometry">
            <mxRectangle width="170" height="30" as="alternateBounds" />
          </mxGeometry>
        </mxCell>
        <mxCell id="6iKRiyLIUnuLd1ZY3PGh-163" value="" style="shape=tableRow;horizontal=0;startSize=0;swimlaneHead=0;swimlaneBody=0;fillColor=none;collapsible=0;dropTarget=0;points=[[0,0.5],[1,0.5]];portConstraint=eastwest;top=0;left=0;right=0;bottom=1;labelBackgroundColor=none;strokeColor=#DDA15E;fontColor=#FEFAE0;rounded=1;strokeWidth=3;" parent="6iKRiyLIUnuLd1ZY3PGh-150" vertex="1">
          <mxGeometry y="150" width="200" height="30" as="geometry" />
        </mxCell>
        <mxCell id="6iKRiyLIUnuLd1ZY3PGh-164" value="FK" style="shape=partialRectangle;connectable=0;fillColor=none;top=0;left=0;bottom=0;right=0;fontStyle=1;overflow=hidden;whiteSpace=wrap;html=1;labelBackgroundColor=none;strokeColor=#DDA15E;fontColor=#FEFAE0;rounded=1;strokeWidth=3;" parent="6iKRiyLIUnuLd1ZY3PGh-163" vertex="1">
          <mxGeometry width="30" height="30" as="geometry">
            <mxRectangle width="30" height="30" as="alternateBounds" />
          </mxGeometry>
        </mxCell>
        <mxCell id="6iKRiyLIUnuLd1ZY3PGh-165" value="fid_river_banks int not null" style="shape=partialRectangle;connectable=0;fillColor=none;top=0;left=0;bottom=0;right=0;align=left;spacingLeft=6;fontStyle=5;overflow=hidden;whiteSpace=wrap;html=1;labelBackgroundColor=none;strokeColor=#DDA15E;fontColor=#FEFAE0;rounded=1;strokeWidth=3;" parent="6iKRiyLIUnuLd1ZY3PGh-163" vertex="1">
          <mxGeometry x="30" width="170" height="30" as="geometry">
            <mxRectangle width="170" height="30" as="alternateBounds" />
          </mxGeometry>
        </mxCell>
        <mxCell id="6iKRiyLIUnuLd1ZY3PGh-166" value="" style="shape=tableRow;horizontal=0;startSize=0;swimlaneHead=0;swimlaneBody=0;fillColor=none;collapsible=0;dropTarget=0;points=[[0,0.5],[1,0.5]];portConstraint=eastwest;top=0;left=0;right=0;bottom=1;labelBackgroundColor=none;strokeColor=#DDA15E;fontColor=#FEFAE0;rounded=1;strokeWidth=3;" parent="6iKRiyLIUnuLd1ZY3PGh-150" vertex="1">
          <mxGeometry y="180" width="200" height="30" as="geometry" />
        </mxCell>
        <mxCell id="6iKRiyLIUnuLd1ZY3PGh-167" value="FK" style="shape=partialRectangle;connectable=0;fillColor=none;top=0;left=0;bottom=0;right=0;fontStyle=1;overflow=hidden;whiteSpace=wrap;html=1;labelBackgroundColor=none;strokeColor=#DDA15E;fontColor=#FEFAE0;rounded=1;strokeWidth=3;" parent="6iKRiyLIUnuLd1ZY3PGh-166" vertex="1">
          <mxGeometry width="30" height="30" as="geometry">
            <mxRectangle width="30" height="30" as="alternateBounds" />
          </mxGeometry>
        </mxCell>
        <mxCell id="6iKRiyLIUnuLd1ZY3PGh-168" value="id_tree_species int not null" style="shape=partialRectangle;connectable=0;fillColor=none;top=0;left=0;bottom=0;right=0;align=left;spacingLeft=6;fontStyle=5;overflow=hidden;whiteSpace=wrap;html=1;labelBackgroundColor=none;strokeColor=#DDA15E;fontColor=#FEFAE0;rounded=1;strokeWidth=3;" parent="6iKRiyLIUnuLd1ZY3PGh-166" vertex="1">
          <mxGeometry x="30" width="170" height="30" as="geometry">
            <mxRectangle width="170" height="30" as="alternateBounds" />
          </mxGeometry>
        </mxCell>
        <mxCell id="6iKRiyLIUnuLd1ZY3PGh-169" value="tree_species" style="shape=table;startSize=30;container=1;collapsible=1;childLayout=tableLayout;fixedRows=1;rowLines=0;fontStyle=1;align=center;resizeLast=1;html=1;labelBackgroundColor=none;fillColor=#BC6C25;strokeColor=#DDA15E;fontColor=#FEFAE0;rounded=1;strokeWidth=3;" parent="1" vertex="1">
          <mxGeometry x="-136" y="1068" width="200" height="120" as="geometry" />
        </mxCell>
        <mxCell id="6iKRiyLIUnuLd1ZY3PGh-170" value="" style="shape=tableRow;horizontal=0;startSize=0;swimlaneHead=0;swimlaneBody=0;fillColor=none;collapsible=0;dropTarget=0;points=[[0,0.5],[1,0.5]];portConstraint=eastwest;top=0;left=0;right=0;bottom=1;labelBackgroundColor=none;strokeColor=#DDA15E;fontColor=#FEFAE0;rounded=1;strokeWidth=3;" parent="6iKRiyLIUnuLd1ZY3PGh-169" vertex="1">
          <mxGeometry y="30" width="200" height="30" as="geometry" />
        </mxCell>
        <mxCell id="6iKRiyLIUnuLd1ZY3PGh-171" value="PK" style="shape=partialRectangle;connectable=0;fillColor=none;top=0;left=0;bottom=0;right=0;fontStyle=1;overflow=hidden;whiteSpace=wrap;html=1;labelBackgroundColor=none;strokeColor=#DDA15E;fontColor=#FEFAE0;rounded=1;strokeWidth=3;" parent="6iKRiyLIUnuLd1ZY3PGh-170" vertex="1">
          <mxGeometry width="30" height="30" as="geometry">
            <mxRectangle width="30" height="30" as="alternateBounds" />
          </mxGeometry>
        </mxCell>
        <mxCell id="6iKRiyLIUnuLd1ZY3PGh-172" value="id serial not null" style="shape=partialRectangle;connectable=0;fillColor=none;top=0;left=0;bottom=0;right=0;align=left;spacingLeft=6;fontStyle=5;overflow=hidden;whiteSpace=wrap;html=1;labelBackgroundColor=none;strokeColor=#DDA15E;fontColor=#FEFAE0;rounded=1;strokeWidth=3;" parent="6iKRiyLIUnuLd1ZY3PGh-170" vertex="1">
          <mxGeometry x="30" width="170" height="30" as="geometry">
            <mxRectangle width="170" height="30" as="alternateBounds" />
          </mxGeometry>
        </mxCell>
        <mxCell id="6iKRiyLIUnuLd1ZY3PGh-173" value="" style="shape=tableRow;horizontal=0;startSize=0;swimlaneHead=0;swimlaneBody=0;fillColor=none;collapsible=0;dropTarget=0;points=[[0,0.5],[1,0.5]];portConstraint=eastwest;top=0;left=0;right=0;bottom=0;labelBackgroundColor=none;strokeColor=#DDA15E;fontColor=#FEFAE0;rounded=1;strokeWidth=3;" parent="6iKRiyLIUnuLd1ZY3PGh-169" vertex="1">
          <mxGeometry y="60" width="200" height="30" as="geometry" />
        </mxCell>
        <mxCell id="6iKRiyLIUnuLd1ZY3PGh-174" value="" style="shape=partialRectangle;connectable=0;fillColor=none;top=0;left=0;bottom=0;right=0;editable=1;overflow=hidden;whiteSpace=wrap;html=1;labelBackgroundColor=none;strokeColor=#DDA15E;fontColor=#FEFAE0;rounded=1;strokeWidth=3;" parent="6iKRiyLIUnuLd1ZY3PGh-173" vertex="1">
          <mxGeometry width="30" height="30" as="geometry">
            <mxRectangle width="30" height="30" as="alternateBounds" />
          </mxGeometry>
        </mxCell>
        <mxCell id="6iKRiyLIUnuLd1ZY3PGh-175" value="species varchar 100 not null" style="shape=partialRectangle;connectable=0;fillColor=none;top=0;left=0;bottom=0;right=0;align=left;spacingLeft=6;overflow=hidden;whiteSpace=wrap;html=1;labelBackgroundColor=none;strokeColor=#DDA15E;fontColor=#FEFAE0;rounded=1;strokeWidth=3;" parent="6iKRiyLIUnuLd1ZY3PGh-173" vertex="1">
          <mxGeometry x="30" width="170" height="30" as="geometry">
            <mxRectangle width="170" height="30" as="alternateBounds" />
          </mxGeometry>
        </mxCell>
        <mxCell id="6iKRiyLIUnuLd1ZY3PGh-176" value="" style="shape=tableRow;horizontal=0;startSize=0;swimlaneHead=0;swimlaneBody=0;fillColor=none;collapsible=0;dropTarget=0;points=[[0,0.5],[1,0.5]];portConstraint=eastwest;top=0;left=0;right=0;bottom=0;labelBackgroundColor=none;strokeColor=#DDA15E;fontColor=#FEFAE0;rounded=1;strokeWidth=3;" parent="6iKRiyLIUnuLd1ZY3PGh-169" vertex="1">
          <mxGeometry y="90" width="200" height="30" as="geometry" />
        </mxCell>
        <mxCell id="6iKRiyLIUnuLd1ZY3PGh-177" value="" style="shape=partialRectangle;connectable=0;fillColor=none;top=0;left=0;bottom=0;right=0;editable=1;overflow=hidden;whiteSpace=wrap;html=1;labelBackgroundColor=none;strokeColor=#DDA15E;fontColor=#FEFAE0;rounded=1;strokeWidth=3;" parent="6iKRiyLIUnuLd1ZY3PGh-176" vertex="1">
          <mxGeometry width="30" height="30" as="geometry">
            <mxRectangle width="30" height="30" as="alternateBounds" />
          </mxGeometry>
        </mxCell>
        <mxCell id="6iKRiyLIUnuLd1ZY3PGh-178" value="latin_name varchar 100" style="shape=partialRectangle;connectable=0;fillColor=none;top=0;left=0;bottom=0;right=0;align=left;spacingLeft=6;overflow=hidden;whiteSpace=wrap;html=1;labelBackgroundColor=none;strokeColor=#DDA15E;fontColor=#FEFAE0;rounded=1;strokeWidth=3;" parent="6iKRiyLIUnuLd1ZY3PGh-176" vertex="1">
          <mxGeometry x="30" width="170" height="30" as="geometry">
            <mxRectangle width="170" height="30" as="alternateBounds" />
          </mxGeometry>
        </mxCell>
        <mxCell id="6iKRiyLIUnuLd1ZY3PGh-179" value="" style="edgeStyle=elbowEdgeStyle;fontSize=12;html=1;endArrow=ERoneToMany;rounded=1;entryX=0;entryY=0.5;entryDx=0;entryDy=0;exitX=0;exitY=0.5;exitDx=0;exitDy=0;labelBackgroundColor=none;strokeColor=#DDA15E;fontColor=default;strokeWidth=3;" parent="1" source="6iKRiyLIUnuLd1ZY3PGh-18" target="6iKRiyLIUnuLd1ZY3PGh-163" edge="1">
          <mxGeometry width="100" height="100" relative="1" as="geometry">
            <mxPoint x="364" y="578" as="sourcePoint" />
            <mxPoint x="-136" y="883" as="targetPoint" />
            <Array as="points">
              <mxPoint x="-176" y="723" />
            </Array>
          </mxGeometry>
        </mxCell>
        <mxCell id="6iKRiyLIUnuLd1ZY3PGh-180" value="" style="edgeStyle=elbowEdgeStyle;fontSize=12;html=1;endArrow=ERmany;rounded=1;entryX=0;entryY=0.5;entryDx=0;entryDy=0;labelBackgroundColor=none;strokeColor=#DDA15E;fontColor=default;strokeWidth=3;" parent="1" target="6iKRiyLIUnuLd1ZY3PGh-166" edge="1">
          <mxGeometry width="100" height="100" relative="1" as="geometry">
            <mxPoint x="-136" y="1113" as="sourcePoint" />
            <mxPoint x="-136" y="978" as="targetPoint" />
            <Array as="points">
              <mxPoint x="-176" y="1043" />
            </Array>
          </mxGeometry>
        </mxCell>
        <mxCell id="6iKRiyLIUnuLd1ZY3PGh-181" value="street_network" style="shape=table;startSize=30;container=1;collapsible=1;childLayout=tableLayout;fixedRows=1;rowLines=0;fontStyle=1;align=center;resizeLast=1;html=1;labelBackgroundColor=none;fillColor=#BC6C25;strokeColor=#DDA15E;fontColor=#FEFAE0;rounded=1;strokeWidth=3;" parent="1" vertex="1">
          <mxGeometry x="584" y="788" width="200" height="180" as="geometry" />
        </mxCell>
        <mxCell id="6iKRiyLIUnuLd1ZY3PGh-182" value="" style="shape=tableRow;horizontal=0;startSize=0;swimlaneHead=0;swimlaneBody=0;fillColor=none;collapsible=0;dropTarget=0;points=[[0,0.5],[1,0.5]];portConstraint=eastwest;top=0;left=0;right=0;bottom=1;labelBackgroundColor=none;strokeColor=#DDA15E;fontColor=#FEFAE0;rounded=1;strokeWidth=3;" parent="6iKRiyLIUnuLd1ZY3PGh-181" vertex="1">
          <mxGeometry y="30" width="200" height="30" as="geometry" />
        </mxCell>
        <mxCell id="6iKRiyLIUnuLd1ZY3PGh-183" value="PK" style="shape=partialRectangle;connectable=0;fillColor=none;top=0;left=0;bottom=0;right=0;fontStyle=1;overflow=hidden;whiteSpace=wrap;html=1;labelBackgroundColor=none;strokeColor=#DDA15E;fontColor=#FEFAE0;rounded=1;strokeWidth=3;" parent="6iKRiyLIUnuLd1ZY3PGh-182" vertex="1">
          <mxGeometry width="30" height="30" as="geometry">
            <mxRectangle width="30" height="30" as="alternateBounds" />
          </mxGeometry>
        </mxCell>
        <mxCell id="6iKRiyLIUnuLd1ZY3PGh-184" value="fid serial not null" style="shape=partialRectangle;connectable=0;fillColor=none;top=0;left=0;bottom=0;right=0;align=left;spacingLeft=6;fontStyle=5;overflow=hidden;whiteSpace=wrap;html=1;labelBackgroundColor=none;strokeColor=#DDA15E;fontColor=#FEFAE0;rounded=1;strokeWidth=3;" parent="6iKRiyLIUnuLd1ZY3PGh-182" vertex="1">
          <mxGeometry x="30" width="170" height="30" as="geometry">
            <mxRectangle width="170" height="30" as="alternateBounds" />
          </mxGeometry>
        </mxCell>
        <mxCell id="6iKRiyLIUnuLd1ZY3PGh-185" value="" style="shape=tableRow;horizontal=0;startSize=0;swimlaneHead=0;swimlaneBody=0;fillColor=none;collapsible=0;dropTarget=0;points=[[0,0.5],[1,0.5]];portConstraint=eastwest;top=0;left=0;right=0;bottom=0;labelBackgroundColor=none;strokeColor=#DDA15E;fontColor=#FEFAE0;rounded=1;strokeWidth=3;" parent="6iKRiyLIUnuLd1ZY3PGh-181" vertex="1">
          <mxGeometry y="60" width="200" height="30" as="geometry" />
        </mxCell>
        <mxCell id="6iKRiyLIUnuLd1ZY3PGh-186" value="" style="shape=partialRectangle;connectable=0;fillColor=none;top=0;left=0;bottom=0;right=0;editable=1;overflow=hidden;whiteSpace=wrap;html=1;labelBackgroundColor=none;strokeColor=#DDA15E;fontColor=#FEFAE0;rounded=1;strokeWidth=3;" parent="6iKRiyLIUnuLd1ZY3PGh-185" vertex="1">
          <mxGeometry width="30" height="30" as="geometry">
            <mxRectangle width="30" height="30" as="alternateBounds" />
          </mxGeometry>
        </mxCell>
        <mxCell id="6iKRiyLIUnuLd1ZY3PGh-187" value="name varchar 100" style="shape=partialRectangle;connectable=0;fillColor=none;top=0;left=0;bottom=0;right=0;align=left;spacingLeft=6;overflow=hidden;whiteSpace=wrap;html=1;labelBackgroundColor=none;strokeColor=#DDA15E;fontColor=#FEFAE0;rounded=1;strokeWidth=3;" parent="6iKRiyLIUnuLd1ZY3PGh-185" vertex="1">
          <mxGeometry x="30" width="170" height="30" as="geometry">
            <mxRectangle width="170" height="30" as="alternateBounds" />
          </mxGeometry>
        </mxCell>
        <mxCell id="6iKRiyLIUnuLd1ZY3PGh-188" value="" style="shape=tableRow;horizontal=0;startSize=0;swimlaneHead=0;swimlaneBody=0;fillColor=none;collapsible=0;dropTarget=0;points=[[0,0.5],[1,0.5]];portConstraint=eastwest;top=0;left=0;right=0;bottom=0;labelBackgroundColor=none;strokeColor=#DDA15E;fontColor=#FEFAE0;rounded=1;strokeWidth=3;" parent="6iKRiyLIUnuLd1ZY3PGh-181" vertex="1">
          <mxGeometry y="90" width="200" height="30" as="geometry" />
        </mxCell>
        <mxCell id="6iKRiyLIUnuLd1ZY3PGh-189" value="" style="shape=partialRectangle;connectable=0;fillColor=none;top=0;left=0;bottom=0;right=0;editable=1;overflow=hidden;whiteSpace=wrap;html=1;labelBackgroundColor=none;strokeColor=#DDA15E;fontColor=#FEFAE0;rounded=1;strokeWidth=3;" parent="6iKRiyLIUnuLd1ZY3PGh-188" vertex="1">
          <mxGeometry width="30" height="30" as="geometry">
            <mxRectangle width="30" height="30" as="alternateBounds" />
          </mxGeometry>
        </mxCell>
        <mxCell id="6iKRiyLIUnuLd1ZY3PGh-190" value="geometry linestring not null" style="shape=partialRectangle;connectable=0;fillColor=none;top=0;left=0;bottom=0;right=0;align=left;spacingLeft=6;overflow=hidden;whiteSpace=wrap;html=1;labelBackgroundColor=none;strokeColor=#DDA15E;fontColor=#FEFAE0;rounded=1;strokeWidth=3;" parent="6iKRiyLIUnuLd1ZY3PGh-188" vertex="1">
          <mxGeometry x="30" width="170" height="30" as="geometry">
            <mxRectangle width="170" height="30" as="alternateBounds" />
          </mxGeometry>
        </mxCell>
        <mxCell id="6iKRiyLIUnuLd1ZY3PGh-194" value="" style="shape=tableRow;horizontal=0;startSize=0;swimlaneHead=0;swimlaneBody=0;fillColor=none;collapsible=0;dropTarget=0;points=[[0,0.5],[1,0.5]];portConstraint=eastwest;top=0;left=0;right=0;bottom=1;labelBackgroundColor=none;strokeColor=#DDA15E;fontColor=#FEFAE0;rounded=1;strokeWidth=3;" parent="6iKRiyLIUnuLd1ZY3PGh-181" vertex="1">
          <mxGeometry y="120" width="200" height="30" as="geometry" />
        </mxCell>
        <mxCell id="6iKRiyLIUnuLd1ZY3PGh-195" value="FK" style="shape=partialRectangle;connectable=0;fillColor=none;top=0;left=0;bottom=0;right=0;fontStyle=1;overflow=hidden;whiteSpace=wrap;html=1;labelBackgroundColor=none;strokeColor=#DDA15E;fontColor=#FEFAE0;rounded=1;strokeWidth=3;" parent="6iKRiyLIUnuLd1ZY3PGh-194" vertex="1">
          <mxGeometry width="30" height="30" as="geometry">
            <mxRectangle width="30" height="30" as="alternateBounds" />
          </mxGeometry>
        </mxCell>
        <mxCell id="6iKRiyLIUnuLd1ZY3PGh-196" value="fid_river_banks int not null" style="shape=partialRectangle;connectable=0;fillColor=none;top=0;left=0;bottom=0;right=0;align=left;spacingLeft=6;fontStyle=5;overflow=hidden;whiteSpace=wrap;html=1;labelBackgroundColor=none;strokeColor=#DDA15E;fontColor=#FEFAE0;rounded=1;strokeWidth=3;" parent="6iKRiyLIUnuLd1ZY3PGh-194" vertex="1">
          <mxGeometry x="30" width="170" height="30" as="geometry">
            <mxRectangle width="170" height="30" as="alternateBounds" />
          </mxGeometry>
        </mxCell>
        <mxCell id="6iKRiyLIUnuLd1ZY3PGh-197" value="" style="shape=tableRow;horizontal=0;startSize=0;swimlaneHead=0;swimlaneBody=0;fillColor=none;collapsible=0;dropTarget=0;points=[[0,0.5],[1,0.5]];portConstraint=eastwest;top=0;left=0;right=0;bottom=1;labelBackgroundColor=none;strokeColor=#DDA15E;fontColor=#FEFAE0;rounded=1;strokeWidth=3;" parent="6iKRiyLIUnuLd1ZY3PGh-181" vertex="1">
          <mxGeometry y="150" width="200" height="30" as="geometry" />
        </mxCell>
        <mxCell id="6iKRiyLIUnuLd1ZY3PGh-198" value="FK" style="shape=partialRectangle;connectable=0;fillColor=none;top=0;left=0;bottom=0;right=0;fontStyle=1;overflow=hidden;whiteSpace=wrap;html=1;labelBackgroundColor=none;strokeColor=#DDA15E;fontColor=#FEFAE0;rounded=1;strokeWidth=3;" parent="6iKRiyLIUnuLd1ZY3PGh-197" vertex="1">
          <mxGeometry width="30" height="30" as="geometry">
            <mxRectangle width="30" height="30" as="alternateBounds" />
          </mxGeometry>
        </mxCell>
        <mxCell id="6iKRiyLIUnuLd1ZY3PGh-199" value="id type_street int not null" style="shape=partialRectangle;connectable=0;fillColor=none;top=0;left=0;bottom=0;right=0;align=left;spacingLeft=6;fontStyle=5;overflow=hidden;whiteSpace=wrap;html=1;labelBackgroundColor=none;strokeColor=#DDA15E;fontColor=#FEFAE0;rounded=1;strokeWidth=3;" parent="6iKRiyLIUnuLd1ZY3PGh-197" vertex="1">
          <mxGeometry x="30" width="170" height="30" as="geometry">
            <mxRectangle width="170" height="30" as="alternateBounds" />
          </mxGeometry>
        </mxCell>
        <mxCell id="6iKRiyLIUnuLd1ZY3PGh-200" value="type_street" style="shape=table;startSize=30;container=1;collapsible=1;childLayout=tableLayout;fixedRows=1;rowLines=0;fontStyle=1;align=center;resizeLast=1;html=1;labelBackgroundColor=none;fillColor=#BC6C25;strokeColor=#DDA15E;fontColor=#FEFAE0;rounded=1;strokeWidth=3;" parent="1" vertex="1">
          <mxGeometry x="574" y="1038" width="200" height="120" as="geometry" />
        </mxCell>
        <mxCell id="6iKRiyLIUnuLd1ZY3PGh-201" value="" style="shape=tableRow;horizontal=0;startSize=0;swimlaneHead=0;swimlaneBody=0;fillColor=none;collapsible=0;dropTarget=0;points=[[0,0.5],[1,0.5]];portConstraint=eastwest;top=0;left=0;right=0;bottom=1;labelBackgroundColor=none;strokeColor=#DDA15E;fontColor=#FEFAE0;rounded=1;strokeWidth=3;" parent="6iKRiyLIUnuLd1ZY3PGh-200" vertex="1">
          <mxGeometry y="30" width="200" height="30" as="geometry" />
        </mxCell>
        <mxCell id="6iKRiyLIUnuLd1ZY3PGh-202" value="PK" style="shape=partialRectangle;connectable=0;fillColor=none;top=0;left=0;bottom=0;right=0;fontStyle=1;overflow=hidden;whiteSpace=wrap;html=1;labelBackgroundColor=none;strokeColor=#DDA15E;fontColor=#FEFAE0;rounded=1;strokeWidth=3;" parent="6iKRiyLIUnuLd1ZY3PGh-201" vertex="1">
          <mxGeometry width="30" height="30" as="geometry">
            <mxRectangle width="30" height="30" as="alternateBounds" />
          </mxGeometry>
        </mxCell>
        <mxCell id="6iKRiyLIUnuLd1ZY3PGh-203" value="id serial not null" style="shape=partialRectangle;connectable=0;fillColor=none;top=0;left=0;bottom=0;right=0;align=left;spacingLeft=6;fontStyle=5;overflow=hidden;whiteSpace=wrap;html=1;labelBackgroundColor=none;strokeColor=#DDA15E;fontColor=#FEFAE0;rounded=1;strokeWidth=3;" parent="6iKRiyLIUnuLd1ZY3PGh-201" vertex="1">
          <mxGeometry x="30" width="170" height="30" as="geometry">
            <mxRectangle width="170" height="30" as="alternateBounds" />
          </mxGeometry>
        </mxCell>
        <mxCell id="6iKRiyLIUnuLd1ZY3PGh-204" value="" style="shape=tableRow;horizontal=0;startSize=0;swimlaneHead=0;swimlaneBody=0;fillColor=none;collapsible=0;dropTarget=0;points=[[0,0.5],[1,0.5]];portConstraint=eastwest;top=0;left=0;right=0;bottom=0;labelBackgroundColor=none;strokeColor=#DDA15E;fontColor=#FEFAE0;rounded=1;strokeWidth=3;" parent="6iKRiyLIUnuLd1ZY3PGh-200" vertex="1">
          <mxGeometry y="60" width="200" height="30" as="geometry" />
        </mxCell>
        <mxCell id="6iKRiyLIUnuLd1ZY3PGh-205" value="" style="shape=partialRectangle;connectable=0;fillColor=none;top=0;left=0;bottom=0;right=0;editable=1;overflow=hidden;whiteSpace=wrap;html=1;labelBackgroundColor=none;strokeColor=#DDA15E;fontColor=#FEFAE0;rounded=1;strokeWidth=3;" parent="6iKRiyLIUnuLd1ZY3PGh-204" vertex="1">
          <mxGeometry width="30" height="30" as="geometry">
            <mxRectangle width="30" height="30" as="alternateBounds" />
          </mxGeometry>
        </mxCell>
        <mxCell id="6iKRiyLIUnuLd1ZY3PGh-206" value="type varchar 50 not null" style="shape=partialRectangle;connectable=0;fillColor=none;top=0;left=0;bottom=0;right=0;align=left;spacingLeft=6;overflow=hidden;whiteSpace=wrap;html=1;labelBackgroundColor=none;strokeColor=#DDA15E;fontColor=#FEFAE0;rounded=1;strokeWidth=3;" parent="6iKRiyLIUnuLd1ZY3PGh-204" vertex="1">
          <mxGeometry x="30" width="170" height="30" as="geometry">
            <mxRectangle width="170" height="30" as="alternateBounds" />
          </mxGeometry>
        </mxCell>
        <mxCell id="6iKRiyLIUnuLd1ZY3PGh-207" value="" style="shape=tableRow;horizontal=0;startSize=0;swimlaneHead=0;swimlaneBody=0;fillColor=none;collapsible=0;dropTarget=0;points=[[0,0.5],[1,0.5]];portConstraint=eastwest;top=0;left=0;right=0;bottom=0;labelBackgroundColor=none;strokeColor=#DDA15E;fontColor=#FEFAE0;rounded=1;strokeWidth=3;" parent="6iKRiyLIUnuLd1ZY3PGh-200" vertex="1">
          <mxGeometry y="90" width="200" height="30" as="geometry" />
        </mxCell>
        <mxCell id="6iKRiyLIUnuLd1ZY3PGh-208" value="" style="shape=partialRectangle;connectable=0;fillColor=none;top=0;left=0;bottom=0;right=0;editable=1;overflow=hidden;whiteSpace=wrap;html=1;labelBackgroundColor=none;strokeColor=#DDA15E;fontColor=#FEFAE0;rounded=1;strokeWidth=3;" parent="6iKRiyLIUnuLd1ZY3PGh-207" vertex="1">
          <mxGeometry width="30" height="30" as="geometry">
            <mxRectangle width="30" height="30" as="alternateBounds" />
          </mxGeometry>
        </mxCell>
        <mxCell id="6iKRiyLIUnuLd1ZY3PGh-209" value="description varchar 100&amp;nbsp;" style="shape=partialRectangle;connectable=0;fillColor=none;top=0;left=0;bottom=0;right=0;align=left;spacingLeft=6;overflow=hidden;whiteSpace=wrap;html=1;labelBackgroundColor=none;strokeColor=#DDA15E;fontColor=#FEFAE0;rounded=1;strokeWidth=3;" parent="6iKRiyLIUnuLd1ZY3PGh-207" vertex="1">
          <mxGeometry x="30" width="170" height="30" as="geometry">
            <mxRectangle width="170" height="30" as="alternateBounds" />
          </mxGeometry>
        </mxCell>
        <mxCell id="6iKRiyLIUnuLd1ZY3PGh-210" value="" style="edgeStyle=orthogonalEdgeStyle;fontSize=12;html=1;endArrow=ERoneToMany;rounded=1;exitX=0;exitY=0.5;exitDx=0;exitDy=0;elbow=vertical;entryX=0;entryY=0.5;entryDx=0;entryDy=0;labelBackgroundColor=none;strokeColor=#DDA15E;fontColor=default;strokeWidth=3;" parent="1" source="6iKRiyLIUnuLd1ZY3PGh-18" target="6iKRiyLIUnuLd1ZY3PGh-194" edge="1">
          <mxGeometry width="100" height="100" relative="1" as="geometry">
            <mxPoint x="364" y="548" as="sourcePoint" />
            <mxPoint x="534" y="918" as="targetPoint" />
            <Array as="points">
              <mxPoint x="244" y="543" />
              <mxPoint x="244" y="748" />
              <mxPoint x="514" y="748" />
              <mxPoint x="514" y="923" />
            </Array>
          </mxGeometry>
        </mxCell>
        <mxCell id="6iKRiyLIUnuLd1ZY3PGh-215" value="" style="edgeStyle=elbowEdgeStyle;fontSize=12;html=1;endArrow=ERmany;rounded=1;entryX=0;entryY=0.5;entryDx=0;entryDy=0;labelBackgroundColor=none;strokeColor=#DDA15E;fontColor=default;strokeWidth=3;" parent="1" target="6iKRiyLIUnuLd1ZY3PGh-197" edge="1">
          <mxGeometry width="100" height="100" relative="1" as="geometry">
            <mxPoint x="574" y="1088" as="sourcePoint" />
            <mxPoint x="574" y="958" as="targetPoint" />
            <Array as="points">
              <mxPoint x="534" y="1018" />
            </Array>
          </mxGeometry>
        </mxCell>
        <mxCell id="6iKRiyLIUnuLd1ZY3PGh-216" value="bridge" style="shape=table;startSize=30;container=1;collapsible=1;childLayout=tableLayout;fixedRows=1;rowLines=0;fontStyle=1;align=center;resizeLast=1;html=1;labelBackgroundColor=none;fillColor=#BC6C25;strokeColor=#DDA15E;fontColor=#FEFAE0;rounded=1;strokeWidth=3;" parent="1" vertex="1">
          <mxGeometry x="954" y="788" width="200" height="210" as="geometry" />
        </mxCell>
        <mxCell id="6iKRiyLIUnuLd1ZY3PGh-217" value="" style="shape=tableRow;horizontal=0;startSize=0;swimlaneHead=0;swimlaneBody=0;fillColor=none;collapsible=0;dropTarget=0;points=[[0,0.5],[1,0.5]];portConstraint=eastwest;top=0;left=0;right=0;bottom=1;labelBackgroundColor=none;strokeColor=#DDA15E;fontColor=#FEFAE0;rounded=1;strokeWidth=3;" parent="6iKRiyLIUnuLd1ZY3PGh-216" vertex="1">
          <mxGeometry y="30" width="200" height="30" as="geometry" />
        </mxCell>
        <mxCell id="6iKRiyLIUnuLd1ZY3PGh-218" value="PK" style="shape=partialRectangle;connectable=0;fillColor=none;top=0;left=0;bottom=0;right=0;fontStyle=1;overflow=hidden;whiteSpace=wrap;html=1;labelBackgroundColor=none;strokeColor=#DDA15E;fontColor=#FEFAE0;rounded=1;strokeWidth=3;" parent="6iKRiyLIUnuLd1ZY3PGh-217" vertex="1">
          <mxGeometry width="30" height="30" as="geometry">
            <mxRectangle width="30" height="30" as="alternateBounds" />
          </mxGeometry>
        </mxCell>
        <mxCell id="6iKRiyLIUnuLd1ZY3PGh-219" value="fid serial not null" style="shape=partialRectangle;connectable=0;fillColor=none;top=0;left=0;bottom=0;right=0;align=left;spacingLeft=6;fontStyle=5;overflow=hidden;whiteSpace=wrap;html=1;labelBackgroundColor=none;strokeColor=#DDA15E;fontColor=#FEFAE0;rounded=1;strokeWidth=3;" parent="6iKRiyLIUnuLd1ZY3PGh-217" vertex="1">
          <mxGeometry x="30" width="170" height="30" as="geometry">
            <mxRectangle width="170" height="30" as="alternateBounds" />
          </mxGeometry>
        </mxCell>
        <mxCell id="6iKRiyLIUnuLd1ZY3PGh-220" value="" style="shape=tableRow;horizontal=0;startSize=0;swimlaneHead=0;swimlaneBody=0;fillColor=none;collapsible=0;dropTarget=0;points=[[0,0.5],[1,0.5]];portConstraint=eastwest;top=0;left=0;right=0;bottom=0;labelBackgroundColor=none;strokeColor=#DDA15E;fontColor=#FEFAE0;rounded=1;strokeWidth=3;" parent="6iKRiyLIUnuLd1ZY3PGh-216" vertex="1">
          <mxGeometry y="60" width="200" height="30" as="geometry" />
        </mxCell>
        <mxCell id="6iKRiyLIUnuLd1ZY3PGh-221" value="" style="shape=partialRectangle;connectable=0;fillColor=none;top=0;left=0;bottom=0;right=0;editable=1;overflow=hidden;whiteSpace=wrap;html=1;labelBackgroundColor=none;strokeColor=#DDA15E;fontColor=#FEFAE0;rounded=1;strokeWidth=3;" parent="6iKRiyLIUnuLd1ZY3PGh-220" vertex="1">
          <mxGeometry width="30" height="30" as="geometry">
            <mxRectangle width="30" height="30" as="alternateBounds" />
          </mxGeometry>
        </mxCell>
        <mxCell id="6iKRiyLIUnuLd1ZY3PGh-222" value="name varchar 50&amp;nbsp;" style="shape=partialRectangle;connectable=0;fillColor=none;top=0;left=0;bottom=0;right=0;align=left;spacingLeft=6;overflow=hidden;whiteSpace=wrap;html=1;labelBackgroundColor=none;strokeColor=#DDA15E;fontColor=#FEFAE0;rounded=1;strokeWidth=3;" parent="6iKRiyLIUnuLd1ZY3PGh-220" vertex="1">
          <mxGeometry x="30" width="170" height="30" as="geometry">
            <mxRectangle width="170" height="30" as="alternateBounds" />
          </mxGeometry>
        </mxCell>
        <mxCell id="6iKRiyLIUnuLd1ZY3PGh-223" value="" style="shape=tableRow;horizontal=0;startSize=0;swimlaneHead=0;swimlaneBody=0;fillColor=none;collapsible=0;dropTarget=0;points=[[0,0.5],[1,0.5]];portConstraint=eastwest;top=0;left=0;right=0;bottom=0;labelBackgroundColor=none;strokeColor=#DDA15E;fontColor=#FEFAE0;rounded=1;strokeWidth=3;" parent="6iKRiyLIUnuLd1ZY3PGh-216" vertex="1">
          <mxGeometry y="90" width="200" height="30" as="geometry" />
        </mxCell>
        <mxCell id="6iKRiyLIUnuLd1ZY3PGh-224" value="" style="shape=partialRectangle;connectable=0;fillColor=none;top=0;left=0;bottom=0;right=0;editable=1;overflow=hidden;whiteSpace=wrap;html=1;labelBackgroundColor=none;strokeColor=#DDA15E;fontColor=#FEFAE0;rounded=1;strokeWidth=3;" parent="6iKRiyLIUnuLd1ZY3PGh-223" vertex="1">
          <mxGeometry width="30" height="30" as="geometry">
            <mxRectangle width="30" height="30" as="alternateBounds" />
          </mxGeometry>
        </mxCell>
        <mxCell id="6iKRiyLIUnuLd1ZY3PGh-225" value="geometry linestring not null" style="shape=partialRectangle;connectable=0;fillColor=none;top=0;left=0;bottom=0;right=0;align=left;spacingLeft=6;overflow=hidden;whiteSpace=wrap;html=1;labelBackgroundColor=none;strokeColor=#DDA15E;fontColor=#FEFAE0;rounded=1;strokeWidth=3;" parent="6iKRiyLIUnuLd1ZY3PGh-223" vertex="1">
          <mxGeometry x="30" width="170" height="30" as="geometry">
            <mxRectangle width="170" height="30" as="alternateBounds" />
          </mxGeometry>
        </mxCell>
        <mxCell id="6iKRiyLIUnuLd1ZY3PGh-226" value="" style="shape=tableRow;horizontal=0;startSize=0;swimlaneHead=0;swimlaneBody=0;fillColor=none;collapsible=0;dropTarget=0;points=[[0,0.5],[1,0.5]];portConstraint=eastwest;top=0;left=0;right=0;bottom=1;labelBackgroundColor=none;strokeColor=#DDA15E;fontColor=#FEFAE0;rounded=1;strokeWidth=3;" parent="6iKRiyLIUnuLd1ZY3PGh-216" vertex="1">
          <mxGeometry y="120" width="200" height="30" as="geometry" />
        </mxCell>
        <mxCell id="6iKRiyLIUnuLd1ZY3PGh-227" value="FK" style="shape=partialRectangle;connectable=0;fillColor=none;top=0;left=0;bottom=0;right=0;fontStyle=1;overflow=hidden;whiteSpace=wrap;html=1;labelBackgroundColor=none;strokeColor=#DDA15E;fontColor=#FEFAE0;rounded=1;strokeWidth=3;" parent="6iKRiyLIUnuLd1ZY3PGh-226" vertex="1">
          <mxGeometry width="30" height="30" as="geometry">
            <mxRectangle width="30" height="30" as="alternateBounds" />
          </mxGeometry>
        </mxCell>
        <mxCell id="6iKRiyLIUnuLd1ZY3PGh-228" value="fid_river_banks int not null" style="shape=partialRectangle;connectable=0;fillColor=none;top=0;left=0;bottom=0;right=0;align=left;spacingLeft=6;fontStyle=5;overflow=hidden;whiteSpace=wrap;html=1;labelBackgroundColor=none;strokeColor=#DDA15E;fontColor=#FEFAE0;rounded=1;strokeWidth=3;" parent="6iKRiyLIUnuLd1ZY3PGh-226" vertex="1">
          <mxGeometry x="30" width="170" height="30" as="geometry">
            <mxRectangle width="170" height="30" as="alternateBounds" />
          </mxGeometry>
        </mxCell>
        <mxCell id="6iKRiyLIUnuLd1ZY3PGh-229" value="" style="shape=tableRow;horizontal=0;startSize=0;swimlaneHead=0;swimlaneBody=0;fillColor=none;collapsible=0;dropTarget=0;points=[[0,0.5],[1,0.5]];portConstraint=eastwest;top=0;left=0;right=0;bottom=1;labelBackgroundColor=none;strokeColor=#DDA15E;fontColor=#FEFAE0;rounded=1;strokeWidth=3;" parent="6iKRiyLIUnuLd1ZY3PGh-216" vertex="1">
          <mxGeometry y="150" width="200" height="30" as="geometry" />
        </mxCell>
        <mxCell id="6iKRiyLIUnuLd1ZY3PGh-230" value="FK" style="shape=partialRectangle;connectable=0;fillColor=none;top=0;left=0;bottom=0;right=0;fontStyle=1;overflow=hidden;whiteSpace=wrap;html=1;labelBackgroundColor=none;strokeColor=#DDA15E;fontColor=#FEFAE0;rounded=1;strokeWidth=3;" parent="6iKRiyLIUnuLd1ZY3PGh-229" vertex="1">
          <mxGeometry width="30" height="30" as="geometry">
            <mxRectangle width="30" height="30" as="alternateBounds" />
          </mxGeometry>
        </mxCell>
        <mxCell id="6iKRiyLIUnuLd1ZY3PGh-231" value="id type_bridge int not null" style="shape=partialRectangle;connectable=0;fillColor=none;top=0;left=0;bottom=0;right=0;align=left;spacingLeft=6;fontStyle=5;overflow=hidden;whiteSpace=wrap;html=1;labelBackgroundColor=none;strokeColor=#DDA15E;fontColor=#FEFAE0;rounded=1;strokeWidth=3;" parent="6iKRiyLIUnuLd1ZY3PGh-229" vertex="1">
          <mxGeometry x="30" width="170" height="30" as="geometry">
            <mxRectangle width="170" height="30" as="alternateBounds" />
          </mxGeometry>
        </mxCell>
        <mxCell id="6iKRiyLIUnuLd1ZY3PGh-272" value="" style="shape=tableRow;horizontal=0;startSize=0;swimlaneHead=0;swimlaneBody=0;fillColor=none;collapsible=0;dropTarget=0;points=[[0,0.5],[1,0.5]];portConstraint=eastwest;top=0;left=0;right=0;bottom=1;labelBackgroundColor=none;strokeColor=#DDA15E;fontColor=#FEFAE0;rounded=1;strokeWidth=3;" parent="6iKRiyLIUnuLd1ZY3PGh-216" vertex="1">
          <mxGeometry y="180" width="200" height="30" as="geometry" />
        </mxCell>
        <mxCell id="6iKRiyLIUnuLd1ZY3PGh-273" value="FK" style="shape=partialRectangle;connectable=0;fillColor=none;top=0;left=0;bottom=0;right=0;fontStyle=1;overflow=hidden;whiteSpace=wrap;html=1;labelBackgroundColor=none;strokeColor=#DDA15E;fontColor=#FEFAE0;rounded=1;strokeWidth=3;" parent="6iKRiyLIUnuLd1ZY3PGh-272" vertex="1">
          <mxGeometry width="30" height="30" as="geometry">
            <mxRectangle width="30" height="30" as="alternateBounds" />
          </mxGeometry>
        </mxCell>
        <mxCell id="6iKRiyLIUnuLd1ZY3PGh-274" value="id status_bridge int not null" style="shape=partialRectangle;connectable=0;fillColor=none;top=0;left=0;bottom=0;right=0;align=left;spacingLeft=6;fontStyle=5;overflow=hidden;whiteSpace=wrap;html=1;labelBackgroundColor=none;strokeColor=#DDA15E;fontColor=#FEFAE0;rounded=1;strokeWidth=3;" parent="6iKRiyLIUnuLd1ZY3PGh-272" vertex="1">
          <mxGeometry x="30" width="170" height="30" as="geometry">
            <mxRectangle width="170" height="30" as="alternateBounds" />
          </mxGeometry>
        </mxCell>
        <mxCell id="6iKRiyLIUnuLd1ZY3PGh-232" value="type_bridge" style="shape=table;startSize=30;container=1;collapsible=1;childLayout=tableLayout;fixedRows=1;rowLines=0;fontStyle=1;align=center;resizeLast=1;html=1;labelBackgroundColor=none;fillColor=#BC6C25;strokeColor=#DDA15E;fontColor=#FEFAE0;rounded=1;strokeWidth=3;" parent="1" vertex="1">
          <mxGeometry x="954" y="1038" width="200" height="110" as="geometry" />
        </mxCell>
        <mxCell id="6iKRiyLIUnuLd1ZY3PGh-233" value="" style="shape=tableRow;horizontal=0;startSize=0;swimlaneHead=0;swimlaneBody=0;fillColor=none;collapsible=0;dropTarget=0;points=[[0,0.5],[1,0.5]];portConstraint=eastwest;top=0;left=0;right=0;bottom=1;labelBackgroundColor=none;strokeColor=#DDA15E;fontColor=#FEFAE0;rounded=1;strokeWidth=3;" parent="6iKRiyLIUnuLd1ZY3PGh-232" vertex="1">
          <mxGeometry y="30" width="200" height="30" as="geometry" />
        </mxCell>
        <mxCell id="6iKRiyLIUnuLd1ZY3PGh-234" value="PK" style="shape=partialRectangle;connectable=0;fillColor=none;top=0;left=0;bottom=0;right=0;fontStyle=1;overflow=hidden;whiteSpace=wrap;html=1;labelBackgroundColor=none;strokeColor=#DDA15E;fontColor=#FEFAE0;rounded=1;strokeWidth=3;" parent="6iKRiyLIUnuLd1ZY3PGh-233" vertex="1">
          <mxGeometry width="30" height="30" as="geometry">
            <mxRectangle width="30" height="30" as="alternateBounds" />
          </mxGeometry>
        </mxCell>
        <mxCell id="6iKRiyLIUnuLd1ZY3PGh-235" value="id serial not null" style="shape=partialRectangle;connectable=0;fillColor=none;top=0;left=0;bottom=0;right=0;align=left;spacingLeft=6;fontStyle=5;overflow=hidden;whiteSpace=wrap;html=1;labelBackgroundColor=none;strokeColor=#DDA15E;fontColor=#FEFAE0;rounded=1;strokeWidth=3;" parent="6iKRiyLIUnuLd1ZY3PGh-233" vertex="1">
          <mxGeometry x="30" width="170" height="30" as="geometry">
            <mxRectangle width="170" height="30" as="alternateBounds" />
          </mxGeometry>
        </mxCell>
        <mxCell id="6iKRiyLIUnuLd1ZY3PGh-236" value="" style="shape=tableRow;horizontal=0;startSize=0;swimlaneHead=0;swimlaneBody=0;fillColor=none;collapsible=0;dropTarget=0;points=[[0,0.5],[1,0.5]];portConstraint=eastwest;top=0;left=0;right=0;bottom=0;labelBackgroundColor=none;strokeColor=#DDA15E;fontColor=#FEFAE0;rounded=1;strokeWidth=3;" parent="6iKRiyLIUnuLd1ZY3PGh-232" vertex="1">
          <mxGeometry y="60" width="200" height="30" as="geometry" />
        </mxCell>
        <mxCell id="6iKRiyLIUnuLd1ZY3PGh-237" value="" style="shape=partialRectangle;connectable=0;fillColor=none;top=0;left=0;bottom=0;right=0;editable=1;overflow=hidden;whiteSpace=wrap;html=1;labelBackgroundColor=none;strokeColor=#DDA15E;fontColor=#FEFAE0;rounded=1;strokeWidth=3;" parent="6iKRiyLIUnuLd1ZY3PGh-236" vertex="1">
          <mxGeometry width="30" height="30" as="geometry">
            <mxRectangle width="30" height="30" as="alternateBounds" />
          </mxGeometry>
        </mxCell>
        <mxCell id="6iKRiyLIUnuLd1ZY3PGh-238" value="type varchar 50 not null" style="shape=partialRectangle;connectable=0;fillColor=none;top=0;left=0;bottom=0;right=0;align=left;spacingLeft=6;overflow=hidden;whiteSpace=wrap;html=1;labelBackgroundColor=none;strokeColor=#DDA15E;fontColor=#FEFAE0;rounded=1;strokeWidth=3;" parent="6iKRiyLIUnuLd1ZY3PGh-236" vertex="1">
          <mxGeometry x="30" width="170" height="30" as="geometry">
            <mxRectangle width="170" height="30" as="alternateBounds" />
          </mxGeometry>
        </mxCell>
        <mxCell id="6iKRiyLIUnuLd1ZY3PGh-239" value="" style="shape=tableRow;horizontal=0;startSize=0;swimlaneHead=0;swimlaneBody=0;fillColor=none;collapsible=0;dropTarget=0;points=[[0,0.5],[1,0.5]];portConstraint=eastwest;top=0;left=0;right=0;bottom=0;labelBackgroundColor=none;strokeColor=#DDA15E;fontColor=#FEFAE0;rounded=1;strokeWidth=3;" parent="6iKRiyLIUnuLd1ZY3PGh-232" vertex="1">
          <mxGeometry y="90" width="200" height="20" as="geometry" />
        </mxCell>
        <mxCell id="6iKRiyLIUnuLd1ZY3PGh-240" value="" style="shape=partialRectangle;connectable=0;fillColor=none;top=0;left=0;bottom=0;right=0;editable=1;overflow=hidden;whiteSpace=wrap;html=1;labelBackgroundColor=none;strokeColor=#DDA15E;fontColor=#FEFAE0;rounded=1;strokeWidth=3;" parent="6iKRiyLIUnuLd1ZY3PGh-239" vertex="1">
          <mxGeometry width="30" height="20" as="geometry">
            <mxRectangle width="30" height="20" as="alternateBounds" />
          </mxGeometry>
        </mxCell>
        <mxCell id="6iKRiyLIUnuLd1ZY3PGh-241" value="" style="shape=partialRectangle;connectable=0;fillColor=none;top=0;left=0;bottom=0;right=0;align=left;spacingLeft=6;overflow=hidden;whiteSpace=wrap;html=1;labelBackgroundColor=none;strokeColor=#DDA15E;fontColor=#FEFAE0;rounded=1;strokeWidth=3;" parent="6iKRiyLIUnuLd1ZY3PGh-239" vertex="1">
          <mxGeometry x="30" width="170" height="20" as="geometry">
            <mxRectangle width="170" height="20" as="alternateBounds" />
          </mxGeometry>
        </mxCell>
        <mxCell id="6iKRiyLIUnuLd1ZY3PGh-243" value="" style="edgeStyle=elbowEdgeStyle;fontSize=12;html=1;endArrow=ERoneToMany;rounded=1;exitX=1;exitY=0.5;exitDx=0;exitDy=0;entryX=0;entryY=0.5;entryDx=0;entryDy=0;labelBackgroundColor=none;strokeColor=#DDA15E;fontColor=default;strokeWidth=3;" parent="1" source="6iKRiyLIUnuLd1ZY3PGh-18" target="6iKRiyLIUnuLd1ZY3PGh-226" edge="1">
          <mxGeometry width="100" height="100" relative="1" as="geometry">
            <mxPoint x="794" y="478" as="sourcePoint" />
            <mxPoint x="1004" y="738" as="targetPoint" />
            <Array as="points">
              <mxPoint x="914" y="648" />
            </Array>
          </mxGeometry>
        </mxCell>
        <mxCell id="6iKRiyLIUnuLd1ZY3PGh-244" value="" style="edgeStyle=elbowEdgeStyle;fontSize=12;html=1;endArrow=ERmany;rounded=1;entryX=0;entryY=0.5;entryDx=0;entryDy=0;labelBackgroundColor=none;strokeColor=#DDA15E;fontColor=default;strokeWidth=3;" parent="1" target="6iKRiyLIUnuLd1ZY3PGh-229" edge="1">
          <mxGeometry width="100" height="100" relative="1" as="geometry">
            <mxPoint x="954" y="1083" as="sourcePoint" />
            <mxPoint x="954" y="918" as="targetPoint" />
            <Array as="points">
              <mxPoint x="914" y="1013" />
            </Array>
          </mxGeometry>
        </mxCell>
        <mxCell id="6iKRiyLIUnuLd1ZY3PGh-245" value="status_bridge" style="shape=table;startSize=30;container=1;collapsible=1;childLayout=tableLayout;fixedRows=1;rowLines=0;fontStyle=1;align=center;resizeLast=1;html=1;labelBackgroundColor=none;fillColor=#BC6C25;strokeColor=#DDA15E;fontColor=#FEFAE0;rounded=1;strokeWidth=3;" parent="1" vertex="1">
          <mxGeometry x="1214" y="1038" width="200" height="110" as="geometry" />
        </mxCell>
        <mxCell id="6iKRiyLIUnuLd1ZY3PGh-246" value="" style="shape=tableRow;horizontal=0;startSize=0;swimlaneHead=0;swimlaneBody=0;fillColor=none;collapsible=0;dropTarget=0;points=[[0,0.5],[1,0.5]];portConstraint=eastwest;top=0;left=0;right=0;bottom=1;labelBackgroundColor=none;strokeColor=#DDA15E;fontColor=#FEFAE0;rounded=1;strokeWidth=3;" parent="6iKRiyLIUnuLd1ZY3PGh-245" vertex="1">
          <mxGeometry y="30" width="200" height="30" as="geometry" />
        </mxCell>
        <mxCell id="6iKRiyLIUnuLd1ZY3PGh-247" value="PK" style="shape=partialRectangle;connectable=0;fillColor=none;top=0;left=0;bottom=0;right=0;fontStyle=1;overflow=hidden;whiteSpace=wrap;html=1;labelBackgroundColor=none;strokeColor=#DDA15E;fontColor=#FEFAE0;rounded=1;strokeWidth=3;" parent="6iKRiyLIUnuLd1ZY3PGh-246" vertex="1">
          <mxGeometry width="30" height="30" as="geometry">
            <mxRectangle width="30" height="30" as="alternateBounds" />
          </mxGeometry>
        </mxCell>
        <mxCell id="6iKRiyLIUnuLd1ZY3PGh-248" value="id serial not null" style="shape=partialRectangle;connectable=0;fillColor=none;top=0;left=0;bottom=0;right=0;align=left;spacingLeft=6;fontStyle=5;overflow=hidden;whiteSpace=wrap;html=1;labelBackgroundColor=none;strokeColor=#DDA15E;fontColor=#FEFAE0;rounded=1;strokeWidth=3;" parent="6iKRiyLIUnuLd1ZY3PGh-246" vertex="1">
          <mxGeometry x="30" width="170" height="30" as="geometry">
            <mxRectangle width="170" height="30" as="alternateBounds" />
          </mxGeometry>
        </mxCell>
        <mxCell id="6iKRiyLIUnuLd1ZY3PGh-249" value="" style="shape=tableRow;horizontal=0;startSize=0;swimlaneHead=0;swimlaneBody=0;fillColor=none;collapsible=0;dropTarget=0;points=[[0,0.5],[1,0.5]];portConstraint=eastwest;top=0;left=0;right=0;bottom=0;labelBackgroundColor=none;strokeColor=#DDA15E;fontColor=#FEFAE0;rounded=1;strokeWidth=3;" parent="6iKRiyLIUnuLd1ZY3PGh-245" vertex="1">
          <mxGeometry y="60" width="200" height="30" as="geometry" />
        </mxCell>
        <mxCell id="6iKRiyLIUnuLd1ZY3PGh-250" value="" style="shape=partialRectangle;connectable=0;fillColor=none;top=0;left=0;bottom=0;right=0;editable=1;overflow=hidden;whiteSpace=wrap;html=1;labelBackgroundColor=none;strokeColor=#DDA15E;fontColor=#FEFAE0;rounded=1;strokeWidth=3;" parent="6iKRiyLIUnuLd1ZY3PGh-249" vertex="1">
          <mxGeometry width="30" height="30" as="geometry">
            <mxRectangle width="30" height="30" as="alternateBounds" />
          </mxGeometry>
        </mxCell>
        <mxCell id="6iKRiyLIUnuLd1ZY3PGh-251" value="status varchar 50 not null" style="shape=partialRectangle;connectable=0;fillColor=none;top=0;left=0;bottom=0;right=0;align=left;spacingLeft=6;overflow=hidden;whiteSpace=wrap;html=1;labelBackgroundColor=none;strokeColor=#DDA15E;fontColor=#FEFAE0;rounded=1;strokeWidth=3;" parent="6iKRiyLIUnuLd1ZY3PGh-249" vertex="1">
          <mxGeometry x="30" width="170" height="30" as="geometry">
            <mxRectangle width="170" height="30" as="alternateBounds" />
          </mxGeometry>
        </mxCell>
        <mxCell id="6iKRiyLIUnuLd1ZY3PGh-252" value="" style="shape=tableRow;horizontal=0;startSize=0;swimlaneHead=0;swimlaneBody=0;fillColor=none;collapsible=0;dropTarget=0;points=[[0,0.5],[1,0.5]];portConstraint=eastwest;top=0;left=0;right=0;bottom=0;labelBackgroundColor=none;strokeColor=#DDA15E;fontColor=#FEFAE0;rounded=1;strokeWidth=3;" parent="6iKRiyLIUnuLd1ZY3PGh-245" vertex="1">
          <mxGeometry y="90" width="200" height="20" as="geometry" />
        </mxCell>
        <mxCell id="6iKRiyLIUnuLd1ZY3PGh-253" value="" style="shape=partialRectangle;connectable=0;fillColor=none;top=0;left=0;bottom=0;right=0;editable=1;overflow=hidden;whiteSpace=wrap;html=1;labelBackgroundColor=none;strokeColor=#DDA15E;fontColor=#FEFAE0;rounded=1;strokeWidth=3;" parent="6iKRiyLIUnuLd1ZY3PGh-252" vertex="1">
          <mxGeometry width="30" height="20" as="geometry">
            <mxRectangle width="30" height="20" as="alternateBounds" />
          </mxGeometry>
        </mxCell>
        <mxCell id="6iKRiyLIUnuLd1ZY3PGh-254" value="" style="shape=partialRectangle;connectable=0;fillColor=none;top=0;left=0;bottom=0;right=0;align=left;spacingLeft=6;overflow=hidden;whiteSpace=wrap;html=1;labelBackgroundColor=none;strokeColor=#DDA15E;fontColor=#FEFAE0;rounded=1;strokeWidth=3;" parent="6iKRiyLIUnuLd1ZY3PGh-252" vertex="1">
          <mxGeometry x="30" width="170" height="20" as="geometry">
            <mxRectangle width="170" height="20" as="alternateBounds" />
          </mxGeometry>
        </mxCell>
        <mxCell id="6iKRiyLIUnuLd1ZY3PGh-255" value="" style="edgeStyle=elbowEdgeStyle;fontSize=12;html=1;endArrow=ERmany;rounded=1;entryX=1;entryY=0.5;entryDx=0;entryDy=0;labelBackgroundColor=none;strokeColor=#DDA15E;fontColor=default;strokeWidth=3;" parent="1" target="6iKRiyLIUnuLd1ZY3PGh-272" edge="1">
          <mxGeometry width="100" height="100" relative="1" as="geometry">
            <mxPoint x="1214" y="1083" as="sourcePoint" />
            <mxPoint x="1214" y="918" as="targetPoint" />
            <Array as="points">
              <mxPoint x="1174" y="1013" />
            </Array>
          </mxGeometry>
        </mxCell>
        <mxCell id="6iKRiyLIUnuLd1ZY3PGh-275" value="benches" style="shape=table;startSize=30;container=1;collapsible=1;childLayout=tableLayout;fixedRows=1;rowLines=0;fontStyle=1;align=center;resizeLast=1;html=1;labelBackgroundColor=none;fillColor=#BC6C25;strokeColor=#DDA15E;fontColor=#FEFAE0;rounded=1;strokeWidth=3;" parent="1" vertex="1">
          <mxGeometry x="1464" y="743" width="200" height="180" as="geometry" />
        </mxCell>
        <mxCell id="6iKRiyLIUnuLd1ZY3PGh-276" value="" style="shape=tableRow;horizontal=0;startSize=0;swimlaneHead=0;swimlaneBody=0;fillColor=none;collapsible=0;dropTarget=0;points=[[0,0.5],[1,0.5]];portConstraint=eastwest;top=0;left=0;right=0;bottom=1;labelBackgroundColor=none;strokeColor=#DDA15E;fontColor=#FEFAE0;rounded=1;strokeWidth=3;" parent="6iKRiyLIUnuLd1ZY3PGh-275" vertex="1">
          <mxGeometry y="30" width="200" height="30" as="geometry" />
        </mxCell>
        <mxCell id="6iKRiyLIUnuLd1ZY3PGh-277" value="PK" style="shape=partialRectangle;connectable=0;fillColor=none;top=0;left=0;bottom=0;right=0;fontStyle=1;overflow=hidden;whiteSpace=wrap;html=1;labelBackgroundColor=none;strokeColor=#DDA15E;fontColor=#FEFAE0;rounded=1;strokeWidth=3;" parent="6iKRiyLIUnuLd1ZY3PGh-276" vertex="1">
          <mxGeometry width="30" height="30" as="geometry">
            <mxRectangle width="30" height="30" as="alternateBounds" />
          </mxGeometry>
        </mxCell>
        <mxCell id="6iKRiyLIUnuLd1ZY3PGh-278" value="fid serial not null" style="shape=partialRectangle;connectable=0;fillColor=none;top=0;left=0;bottom=0;right=0;align=left;spacingLeft=6;fontStyle=5;overflow=hidden;whiteSpace=wrap;html=1;labelBackgroundColor=none;strokeColor=#DDA15E;fontColor=#FEFAE0;rounded=1;strokeWidth=3;" parent="6iKRiyLIUnuLd1ZY3PGh-276" vertex="1">
          <mxGeometry x="30" width="170" height="30" as="geometry">
            <mxRectangle width="170" height="30" as="alternateBounds" />
          </mxGeometry>
        </mxCell>
        <mxCell id="6iKRiyLIUnuLd1ZY3PGh-279" value="" style="shape=tableRow;horizontal=0;startSize=0;swimlaneHead=0;swimlaneBody=0;fillColor=none;collapsible=0;dropTarget=0;points=[[0,0.5],[1,0.5]];portConstraint=eastwest;top=0;left=0;right=0;bottom=0;labelBackgroundColor=none;strokeColor=#DDA15E;fontColor=#FEFAE0;rounded=1;strokeWidth=3;" parent="6iKRiyLIUnuLd1ZY3PGh-275" vertex="1">
          <mxGeometry y="60" width="200" height="30" as="geometry" />
        </mxCell>
        <mxCell id="6iKRiyLIUnuLd1ZY3PGh-280" value="" style="shape=partialRectangle;connectable=0;fillColor=none;top=0;left=0;bottom=0;right=0;editable=1;overflow=hidden;whiteSpace=wrap;html=1;labelBackgroundColor=none;strokeColor=#DDA15E;fontColor=#FEFAE0;rounded=1;strokeWidth=3;" parent="6iKRiyLIUnuLd1ZY3PGh-279" vertex="1">
          <mxGeometry width="30" height="30" as="geometry">
            <mxRectangle width="30" height="30" as="alternateBounds" />
          </mxGeometry>
        </mxCell>
        <mxCell id="6iKRiyLIUnuLd1ZY3PGh-281" value="places int not null&amp;nbsp;" style="shape=partialRectangle;connectable=0;fillColor=none;top=0;left=0;bottom=0;right=0;align=left;spacingLeft=6;overflow=hidden;whiteSpace=wrap;html=1;labelBackgroundColor=none;strokeColor=#DDA15E;fontColor=#FEFAE0;rounded=1;strokeWidth=3;" parent="6iKRiyLIUnuLd1ZY3PGh-279" vertex="1">
          <mxGeometry x="30" width="170" height="30" as="geometry">
            <mxRectangle width="170" height="30" as="alternateBounds" />
          </mxGeometry>
        </mxCell>
        <mxCell id="6iKRiyLIUnuLd1ZY3PGh-282" value="" style="shape=tableRow;horizontal=0;startSize=0;swimlaneHead=0;swimlaneBody=0;fillColor=none;collapsible=0;dropTarget=0;points=[[0,0.5],[1,0.5]];portConstraint=eastwest;top=0;left=0;right=0;bottom=0;labelBackgroundColor=none;strokeColor=#DDA15E;fontColor=#FEFAE0;rounded=1;strokeWidth=3;" parent="6iKRiyLIUnuLd1ZY3PGh-275" vertex="1">
          <mxGeometry y="90" width="200" height="30" as="geometry" />
        </mxCell>
        <mxCell id="6iKRiyLIUnuLd1ZY3PGh-283" value="" style="shape=partialRectangle;connectable=0;fillColor=none;top=0;left=0;bottom=0;right=0;editable=1;overflow=hidden;whiteSpace=wrap;html=1;labelBackgroundColor=none;strokeColor=#DDA15E;fontColor=#FEFAE0;rounded=1;strokeWidth=3;" parent="6iKRiyLIUnuLd1ZY3PGh-282" vertex="1">
          <mxGeometry width="30" height="30" as="geometry">
            <mxRectangle width="30" height="30" as="alternateBounds" />
          </mxGeometry>
        </mxCell>
        <mxCell id="6iKRiyLIUnuLd1ZY3PGh-284" value="geometry point not null" style="shape=partialRectangle;connectable=0;fillColor=none;top=0;left=0;bottom=0;right=0;align=left;spacingLeft=6;overflow=hidden;whiteSpace=wrap;html=1;labelBackgroundColor=none;strokeColor=#DDA15E;fontColor=#FEFAE0;rounded=1;strokeWidth=3;" parent="6iKRiyLIUnuLd1ZY3PGh-282" vertex="1">
          <mxGeometry x="30" width="170" height="30" as="geometry">
            <mxRectangle width="170" height="30" as="alternateBounds" />
          </mxGeometry>
        </mxCell>
        <mxCell id="6iKRiyLIUnuLd1ZY3PGh-285" value="" style="shape=tableRow;horizontal=0;startSize=0;swimlaneHead=0;swimlaneBody=0;fillColor=none;collapsible=0;dropTarget=0;points=[[0,0.5],[1,0.5]];portConstraint=eastwest;top=0;left=0;right=0;bottom=1;labelBackgroundColor=none;strokeColor=#DDA15E;fontColor=#FEFAE0;rounded=1;strokeWidth=3;" parent="6iKRiyLIUnuLd1ZY3PGh-275" vertex="1">
          <mxGeometry y="120" width="200" height="30" as="geometry" />
        </mxCell>
        <mxCell id="6iKRiyLIUnuLd1ZY3PGh-286" value="" style="shape=partialRectangle;connectable=0;fillColor=none;top=0;left=0;bottom=0;right=0;fontStyle=1;overflow=hidden;whiteSpace=wrap;html=1;labelBackgroundColor=none;strokeColor=#DDA15E;fontColor=#FEFAE0;rounded=1;strokeWidth=3;" parent="6iKRiyLIUnuLd1ZY3PGh-285" vertex="1">
          <mxGeometry width="30" height="30" as="geometry">
            <mxRectangle width="30" height="30" as="alternateBounds" />
          </mxGeometry>
        </mxCell>
        <mxCell id="6iKRiyLIUnuLd1ZY3PGh-287" value="backrest boolean&amp;nbsp;" style="shape=partialRectangle;connectable=0;fillColor=none;top=0;left=0;bottom=0;right=0;align=left;spacingLeft=6;fontStyle=5;overflow=hidden;whiteSpace=wrap;html=1;labelBackgroundColor=none;strokeColor=#DDA15E;fontColor=#FEFAE0;rounded=1;strokeWidth=3;" parent="6iKRiyLIUnuLd1ZY3PGh-285" vertex="1">
          <mxGeometry x="30" width="170" height="30" as="geometry">
            <mxRectangle width="170" height="30" as="alternateBounds" />
          </mxGeometry>
        </mxCell>
        <mxCell id="6iKRiyLIUnuLd1ZY3PGh-288" value="" style="shape=tableRow;horizontal=0;startSize=0;swimlaneHead=0;swimlaneBody=0;fillColor=none;collapsible=0;dropTarget=0;points=[[0,0.5],[1,0.5]];portConstraint=eastwest;top=0;left=0;right=0;bottom=1;labelBackgroundColor=none;strokeColor=#DDA15E;fontColor=#FEFAE0;rounded=1;strokeWidth=3;" parent="6iKRiyLIUnuLd1ZY3PGh-275" vertex="1">
          <mxGeometry y="150" width="200" height="30" as="geometry" />
        </mxCell>
        <mxCell id="6iKRiyLIUnuLd1ZY3PGh-289" value="FK" style="shape=partialRectangle;connectable=0;fillColor=none;top=0;left=0;bottom=0;right=0;fontStyle=1;overflow=hidden;whiteSpace=wrap;html=1;labelBackgroundColor=none;strokeColor=#DDA15E;fontColor=#FEFAE0;rounded=1;strokeWidth=3;" parent="6iKRiyLIUnuLd1ZY3PGh-288" vertex="1">
          <mxGeometry width="30" height="30" as="geometry">
            <mxRectangle width="30" height="30" as="alternateBounds" />
          </mxGeometry>
        </mxCell>
        <mxCell id="6iKRiyLIUnuLd1ZY3PGh-290" value="fid_river_banks int not null" style="shape=partialRectangle;connectable=0;fillColor=none;top=0;left=0;bottom=0;right=0;align=left;spacingLeft=6;fontStyle=5;overflow=hidden;whiteSpace=wrap;html=1;labelBackgroundColor=none;strokeColor=#DDA15E;fontColor=#FEFAE0;rounded=1;strokeWidth=3;" parent="6iKRiyLIUnuLd1ZY3PGh-288" vertex="1">
          <mxGeometry x="30" width="170" height="30" as="geometry">
            <mxRectangle width="170" height="30" as="alternateBounds" />
          </mxGeometry>
        </mxCell>
        <mxCell id="6iKRiyLIUnuLd1ZY3PGh-297" value="" style="edgeStyle=elbowEdgeStyle;fontSize=12;html=1;endArrow=ERoneToMany;rounded=1;entryX=0;entryY=0.5;entryDx=0;entryDy=0;exitX=1;exitY=0.5;exitDx=0;exitDy=0;labelBackgroundColor=none;strokeColor=#DDA15E;fontColor=default;strokeWidth=3;" parent="1" source="6iKRiyLIUnuLd1ZY3PGh-18" target="6iKRiyLIUnuLd1ZY3PGh-288" edge="1">
          <mxGeometry width="100" height="100" relative="1" as="geometry">
            <mxPoint x="564" y="538" as="sourcePoint" />
            <mxPoint x="1464" y="788" as="targetPoint" />
            <Array as="points">
              <mxPoint x="1424" y="633" />
            </Array>
          </mxGeometry>
        </mxCell>
        <mxCell id="6iKRiyLIUnuLd1ZY3PGh-298" value="facilities" style="shape=table;startSize=30;container=1;collapsible=1;childLayout=tableLayout;fixedRows=1;rowLines=0;fontStyle=1;align=center;resizeLast=1;html=1;labelBackgroundColor=none;fillColor=#BC6C25;strokeColor=#DDA15E;fontColor=#FEFAE0;rounded=1;strokeWidth=3;" parent="1" vertex="1">
          <mxGeometry x="214" y="788" width="200" height="150" as="geometry" />
        </mxCell>
        <mxCell id="6iKRiyLIUnuLd1ZY3PGh-299" value="" style="shape=tableRow;horizontal=0;startSize=0;swimlaneHead=0;swimlaneBody=0;fillColor=none;collapsible=0;dropTarget=0;points=[[0,0.5],[1,0.5]];portConstraint=eastwest;top=0;left=0;right=0;bottom=1;labelBackgroundColor=none;strokeColor=#DDA15E;fontColor=#FEFAE0;rounded=1;strokeWidth=3;" parent="6iKRiyLIUnuLd1ZY3PGh-298" vertex="1">
          <mxGeometry y="30" width="200" height="30" as="geometry" />
        </mxCell>
        <mxCell id="6iKRiyLIUnuLd1ZY3PGh-300" value="PK" style="shape=partialRectangle;connectable=0;fillColor=none;top=0;left=0;bottom=0;right=0;fontStyle=1;overflow=hidden;whiteSpace=wrap;html=1;labelBackgroundColor=none;strokeColor=#DDA15E;fontColor=#FEFAE0;rounded=1;strokeWidth=3;" parent="6iKRiyLIUnuLd1ZY3PGh-299" vertex="1">
          <mxGeometry width="30" height="30" as="geometry">
            <mxRectangle width="30" height="30" as="alternateBounds" />
          </mxGeometry>
        </mxCell>
        <mxCell id="6iKRiyLIUnuLd1ZY3PGh-301" value="fid serial not null" style="shape=partialRectangle;connectable=0;fillColor=none;top=0;left=0;bottom=0;right=0;align=left;spacingLeft=6;fontStyle=5;overflow=hidden;whiteSpace=wrap;html=1;labelBackgroundColor=none;strokeColor=#DDA15E;fontColor=#FEFAE0;rounded=1;strokeWidth=3;" parent="6iKRiyLIUnuLd1ZY3PGh-299" vertex="1">
          <mxGeometry x="30" width="170" height="30" as="geometry">
            <mxRectangle width="170" height="30" as="alternateBounds" />
          </mxGeometry>
        </mxCell>
        <mxCell id="6iKRiyLIUnuLd1ZY3PGh-302" value="" style="shape=tableRow;horizontal=0;startSize=0;swimlaneHead=0;swimlaneBody=0;fillColor=none;collapsible=0;dropTarget=0;points=[[0,0.5],[1,0.5]];portConstraint=eastwest;top=0;left=0;right=0;bottom=0;labelBackgroundColor=none;strokeColor=#DDA15E;fontColor=#FEFAE0;rounded=1;strokeWidth=3;" parent="6iKRiyLIUnuLd1ZY3PGh-298" vertex="1">
          <mxGeometry y="60" width="200" height="30" as="geometry" />
        </mxCell>
        <mxCell id="6iKRiyLIUnuLd1ZY3PGh-303" value="" style="shape=partialRectangle;connectable=0;fillColor=none;top=0;left=0;bottom=0;right=0;editable=1;overflow=hidden;whiteSpace=wrap;html=1;labelBackgroundColor=none;strokeColor=#DDA15E;fontColor=#FEFAE0;rounded=1;strokeWidth=3;" parent="6iKRiyLIUnuLd1ZY3PGh-302" vertex="1">
          <mxGeometry width="30" height="30" as="geometry">
            <mxRectangle width="30" height="30" as="alternateBounds" />
          </mxGeometry>
        </mxCell>
        <mxCell id="6iKRiyLIUnuLd1ZY3PGh-304" value="name varchar 100" style="shape=partialRectangle;connectable=0;fillColor=none;top=0;left=0;bottom=0;right=0;align=left;spacingLeft=6;overflow=hidden;whiteSpace=wrap;html=1;labelBackgroundColor=none;strokeColor=#DDA15E;fontColor=#FEFAE0;rounded=1;strokeWidth=3;" parent="6iKRiyLIUnuLd1ZY3PGh-302" vertex="1">
          <mxGeometry x="30" width="170" height="30" as="geometry">
            <mxRectangle width="170" height="30" as="alternateBounds" />
          </mxGeometry>
        </mxCell>
        <mxCell id="6iKRiyLIUnuLd1ZY3PGh-305" value="" style="shape=tableRow;horizontal=0;startSize=0;swimlaneHead=0;swimlaneBody=0;fillColor=none;collapsible=0;dropTarget=0;points=[[0,0.5],[1,0.5]];portConstraint=eastwest;top=0;left=0;right=0;bottom=0;labelBackgroundColor=none;strokeColor=#DDA15E;fontColor=#FEFAE0;rounded=1;strokeWidth=3;" parent="6iKRiyLIUnuLd1ZY3PGh-298" vertex="1">
          <mxGeometry y="90" width="200" height="30" as="geometry" />
        </mxCell>
        <mxCell id="6iKRiyLIUnuLd1ZY3PGh-306" value="" style="shape=partialRectangle;connectable=0;fillColor=none;top=0;left=0;bottom=0;right=0;editable=1;overflow=hidden;whiteSpace=wrap;html=1;labelBackgroundColor=none;strokeColor=#DDA15E;fontColor=#FEFAE0;rounded=1;strokeWidth=3;" parent="6iKRiyLIUnuLd1ZY3PGh-305" vertex="1">
          <mxGeometry width="30" height="30" as="geometry">
            <mxRectangle width="30" height="30" as="alternateBounds" />
          </mxGeometry>
        </mxCell>
        <mxCell id="6iKRiyLIUnuLd1ZY3PGh-307" value="geometry polygon not null" style="shape=partialRectangle;connectable=0;fillColor=none;top=0;left=0;bottom=0;right=0;align=left;spacingLeft=6;overflow=hidden;whiteSpace=wrap;html=1;labelBackgroundColor=none;strokeColor=#DDA15E;fontColor=#FEFAE0;rounded=1;strokeWidth=3;" parent="6iKRiyLIUnuLd1ZY3PGh-305" vertex="1">
          <mxGeometry x="30" width="170" height="30" as="geometry">
            <mxRectangle width="170" height="30" as="alternateBounds" />
          </mxGeometry>
        </mxCell>
        <mxCell id="6iKRiyLIUnuLd1ZY3PGh-308" value="" style="shape=tableRow;horizontal=0;startSize=0;swimlaneHead=0;swimlaneBody=0;fillColor=none;collapsible=0;dropTarget=0;points=[[0,0.5],[1,0.5]];portConstraint=eastwest;top=0;left=0;right=0;bottom=1;labelBackgroundColor=none;strokeColor=#DDA15E;fontColor=#FEFAE0;rounded=1;strokeWidth=3;" parent="6iKRiyLIUnuLd1ZY3PGh-298" vertex="1">
          <mxGeometry y="120" width="200" height="30" as="geometry" />
        </mxCell>
        <mxCell id="6iKRiyLIUnuLd1ZY3PGh-309" value="FK" style="shape=partialRectangle;connectable=0;fillColor=none;top=0;left=0;bottom=0;right=0;fontStyle=1;overflow=hidden;whiteSpace=wrap;html=1;labelBackgroundColor=none;strokeColor=#DDA15E;fontColor=#FEFAE0;rounded=1;strokeWidth=3;" parent="6iKRiyLIUnuLd1ZY3PGh-308" vertex="1">
          <mxGeometry width="30" height="30" as="geometry">
            <mxRectangle width="30" height="30" as="alternateBounds" />
          </mxGeometry>
        </mxCell>
        <mxCell id="6iKRiyLIUnuLd1ZY3PGh-310" value="fid_river_banks int not null" style="shape=partialRectangle;connectable=0;fillColor=none;top=0;left=0;bottom=0;right=0;align=left;spacingLeft=6;fontStyle=5;overflow=hidden;whiteSpace=wrap;html=1;labelBackgroundColor=none;strokeColor=#DDA15E;fontColor=#FEFAE0;rounded=1;strokeWidth=3;" parent="6iKRiyLIUnuLd1ZY3PGh-308" vertex="1">
          <mxGeometry x="30" width="170" height="30" as="geometry">
            <mxRectangle width="170" height="30" as="alternateBounds" />
          </mxGeometry>
        </mxCell>
        <mxCell id="6iKRiyLIUnuLd1ZY3PGh-314" value="type_facility" style="shape=table;startSize=30;container=1;collapsible=1;childLayout=tableLayout;fixedRows=1;rowLines=0;fontStyle=1;align=center;resizeLast=1;html=1;labelBackgroundColor=none;fillColor=#BC6C25;strokeColor=#DDA15E;fontColor=#FEFAE0;rounded=1;strokeWidth=3;" parent="1" vertex="1">
          <mxGeometry x="214" y="1198" width="200" height="120" as="geometry" />
        </mxCell>
        <mxCell id="6iKRiyLIUnuLd1ZY3PGh-315" value="" style="shape=tableRow;horizontal=0;startSize=0;swimlaneHead=0;swimlaneBody=0;fillColor=none;collapsible=0;dropTarget=0;points=[[0,0.5],[1,0.5]];portConstraint=eastwest;top=0;left=0;right=0;bottom=1;labelBackgroundColor=none;strokeColor=#DDA15E;fontColor=#FEFAE0;rounded=1;strokeWidth=3;" parent="6iKRiyLIUnuLd1ZY3PGh-314" vertex="1">
          <mxGeometry y="30" width="200" height="30" as="geometry" />
        </mxCell>
        <mxCell id="6iKRiyLIUnuLd1ZY3PGh-316" value="PK" style="shape=partialRectangle;connectable=0;fillColor=none;top=0;left=0;bottom=0;right=0;fontStyle=1;overflow=hidden;whiteSpace=wrap;html=1;labelBackgroundColor=none;strokeColor=#DDA15E;fontColor=#FEFAE0;rounded=1;strokeWidth=3;" parent="6iKRiyLIUnuLd1ZY3PGh-315" vertex="1">
          <mxGeometry width="30" height="30" as="geometry">
            <mxRectangle width="30" height="30" as="alternateBounds" />
          </mxGeometry>
        </mxCell>
        <mxCell id="6iKRiyLIUnuLd1ZY3PGh-317" value="id serial not null" style="shape=partialRectangle;connectable=0;fillColor=none;top=0;left=0;bottom=0;right=0;align=left;spacingLeft=6;fontStyle=5;overflow=hidden;whiteSpace=wrap;html=1;labelBackgroundColor=none;strokeColor=#DDA15E;fontColor=#FEFAE0;rounded=1;strokeWidth=3;" parent="6iKRiyLIUnuLd1ZY3PGh-315" vertex="1">
          <mxGeometry x="30" width="170" height="30" as="geometry">
            <mxRectangle width="170" height="30" as="alternateBounds" />
          </mxGeometry>
        </mxCell>
        <mxCell id="6iKRiyLIUnuLd1ZY3PGh-318" value="" style="shape=tableRow;horizontal=0;startSize=0;swimlaneHead=0;swimlaneBody=0;fillColor=none;collapsible=0;dropTarget=0;points=[[0,0.5],[1,0.5]];portConstraint=eastwest;top=0;left=0;right=0;bottom=0;labelBackgroundColor=none;strokeColor=#DDA15E;fontColor=#FEFAE0;rounded=1;strokeWidth=3;" parent="6iKRiyLIUnuLd1ZY3PGh-314" vertex="1">
          <mxGeometry y="60" width="200" height="30" as="geometry" />
        </mxCell>
        <mxCell id="6iKRiyLIUnuLd1ZY3PGh-319" value="" style="shape=partialRectangle;connectable=0;fillColor=none;top=0;left=0;bottom=0;right=0;editable=1;overflow=hidden;whiteSpace=wrap;html=1;labelBackgroundColor=none;strokeColor=#DDA15E;fontColor=#FEFAE0;rounded=1;strokeWidth=3;" parent="6iKRiyLIUnuLd1ZY3PGh-318" vertex="1">
          <mxGeometry width="30" height="30" as="geometry">
            <mxRectangle width="30" height="30" as="alternateBounds" />
          </mxGeometry>
        </mxCell>
        <mxCell id="6iKRiyLIUnuLd1ZY3PGh-320" value="type varchar 50 not null" style="shape=partialRectangle;connectable=0;fillColor=none;top=0;left=0;bottom=0;right=0;align=left;spacingLeft=6;overflow=hidden;whiteSpace=wrap;html=1;labelBackgroundColor=none;strokeColor=#DDA15E;fontColor=#FEFAE0;rounded=1;strokeWidth=3;" parent="6iKRiyLIUnuLd1ZY3PGh-318" vertex="1">
          <mxGeometry x="30" width="170" height="30" as="geometry">
            <mxRectangle width="170" height="30" as="alternateBounds" />
          </mxGeometry>
        </mxCell>
        <mxCell id="6iKRiyLIUnuLd1ZY3PGh-321" value="" style="shape=tableRow;horizontal=0;startSize=0;swimlaneHead=0;swimlaneBody=0;fillColor=none;collapsible=0;dropTarget=0;points=[[0,0.5],[1,0.5]];portConstraint=eastwest;top=0;left=0;right=0;bottom=0;labelBackgroundColor=none;strokeColor=#DDA15E;fontColor=#FEFAE0;rounded=1;strokeWidth=3;" parent="6iKRiyLIUnuLd1ZY3PGh-314" vertex="1">
          <mxGeometry y="90" width="200" height="30" as="geometry" />
        </mxCell>
        <mxCell id="6iKRiyLIUnuLd1ZY3PGh-322" value="" style="shape=partialRectangle;connectable=0;fillColor=none;top=0;left=0;bottom=0;right=0;editable=1;overflow=hidden;whiteSpace=wrap;html=1;labelBackgroundColor=none;strokeColor=#DDA15E;fontColor=#FEFAE0;rounded=1;strokeWidth=3;" parent="6iKRiyLIUnuLd1ZY3PGh-321" vertex="1">
          <mxGeometry width="30" height="30" as="geometry">
            <mxRectangle width="30" height="30" as="alternateBounds" />
          </mxGeometry>
        </mxCell>
        <mxCell id="6iKRiyLIUnuLd1ZY3PGh-323" value="description varchar 100&amp;nbsp;" style="shape=partialRectangle;connectable=0;fillColor=none;top=0;left=0;bottom=0;right=0;align=left;spacingLeft=6;overflow=hidden;whiteSpace=wrap;html=1;labelBackgroundColor=none;strokeColor=#DDA15E;fontColor=#FEFAE0;rounded=1;strokeWidth=3;" parent="6iKRiyLIUnuLd1ZY3PGh-321" vertex="1">
          <mxGeometry x="30" width="170" height="30" as="geometry">
            <mxRectangle width="170" height="30" as="alternateBounds" />
          </mxGeometry>
        </mxCell>
        <mxCell id="6iKRiyLIUnuLd1ZY3PGh-324" value="facilities_type_facility" style="shape=table;startSize=30;container=1;collapsible=1;childLayout=tableLayout;fixedRows=1;rowLines=0;fontStyle=1;align=center;resizeLast=1;html=1;labelBackgroundColor=none;fillColor=#BC6C25;strokeColor=#DDA15E;fontColor=#FEFAE0;rounded=1;strokeWidth=3;" parent="1" vertex="1">
          <mxGeometry x="214" y="998" width="200" height="150" as="geometry" />
        </mxCell>
        <mxCell id="6iKRiyLIUnuLd1ZY3PGh-325" value="" style="shape=tableRow;horizontal=0;startSize=0;swimlaneHead=0;swimlaneBody=0;fillColor=none;collapsible=0;dropTarget=0;points=[[0,0.5],[1,0.5]];portConstraint=eastwest;top=0;left=0;right=0;bottom=1;labelBackgroundColor=none;strokeColor=#DDA15E;fontColor=#FEFAE0;rounded=1;strokeWidth=3;" parent="6iKRiyLIUnuLd1ZY3PGh-324" vertex="1">
          <mxGeometry y="30" width="200" height="30" as="geometry" />
        </mxCell>
        <mxCell id="6iKRiyLIUnuLd1ZY3PGh-326" value="PK" style="shape=partialRectangle;connectable=0;fillColor=none;top=0;left=0;bottom=0;right=0;fontStyle=1;overflow=hidden;whiteSpace=wrap;html=1;labelBackgroundColor=none;strokeColor=#DDA15E;fontColor=#FEFAE0;rounded=1;strokeWidth=3;" parent="6iKRiyLIUnuLd1ZY3PGh-325" vertex="1">
          <mxGeometry width="30" height="30" as="geometry">
            <mxRectangle width="30" height="30" as="alternateBounds" />
          </mxGeometry>
        </mxCell>
        <mxCell id="6iKRiyLIUnuLd1ZY3PGh-327" value="id serial not null" style="shape=partialRectangle;connectable=0;fillColor=none;top=0;left=0;bottom=0;right=0;align=left;spacingLeft=6;fontStyle=5;overflow=hidden;whiteSpace=wrap;html=1;labelBackgroundColor=none;strokeColor=#DDA15E;fontColor=#FEFAE0;rounded=1;strokeWidth=3;" parent="6iKRiyLIUnuLd1ZY3PGh-325" vertex="1">
          <mxGeometry x="30" width="170" height="30" as="geometry">
            <mxRectangle width="170" height="30" as="alternateBounds" />
          </mxGeometry>
        </mxCell>
        <mxCell id="6iKRiyLIUnuLd1ZY3PGh-328" value="" style="shape=tableRow;horizontal=0;startSize=0;swimlaneHead=0;swimlaneBody=0;fillColor=none;collapsible=0;dropTarget=0;points=[[0,0.5],[1,0.5]];portConstraint=eastwest;top=0;left=0;right=0;bottom=0;labelBackgroundColor=none;strokeColor=#DDA15E;fontColor=#FEFAE0;rounded=1;strokeWidth=3;" parent="6iKRiyLIUnuLd1ZY3PGh-324" vertex="1">
          <mxGeometry y="60" width="200" height="30" as="geometry" />
        </mxCell>
        <mxCell id="6iKRiyLIUnuLd1ZY3PGh-329" value="" style="shape=partialRectangle;connectable=0;fillColor=none;top=0;left=0;bottom=0;right=0;editable=1;overflow=hidden;whiteSpace=wrap;html=1;labelBackgroundColor=none;strokeColor=#DDA15E;fontColor=#FEFAE0;rounded=1;strokeWidth=3;" parent="6iKRiyLIUnuLd1ZY3PGh-328" vertex="1">
          <mxGeometry width="30" height="30" as="geometry">
            <mxRectangle width="30" height="30" as="alternateBounds" />
          </mxGeometry>
        </mxCell>
        <mxCell id="6iKRiyLIUnuLd1ZY3PGh-330" value="" style="shape=partialRectangle;connectable=0;fillColor=none;top=0;left=0;bottom=0;right=0;align=left;spacingLeft=6;overflow=hidden;whiteSpace=wrap;html=1;labelBackgroundColor=none;strokeColor=#DDA15E;fontColor=#FEFAE0;rounded=1;strokeWidth=3;" parent="6iKRiyLIUnuLd1ZY3PGh-328" vertex="1">
          <mxGeometry x="30" width="170" height="30" as="geometry">
            <mxRectangle width="170" height="30" as="alternateBounds" />
          </mxGeometry>
        </mxCell>
        <mxCell id="6iKRiyLIUnuLd1ZY3PGh-335" value="" style="shape=tableRow;horizontal=0;startSize=0;swimlaneHead=0;swimlaneBody=0;fillColor=none;collapsible=0;dropTarget=0;points=[[0,0.5],[1,0.5]];portConstraint=eastwest;top=0;left=0;right=0;bottom=1;labelBackgroundColor=none;strokeColor=#DDA15E;fontColor=#FEFAE0;rounded=1;strokeWidth=3;" parent="6iKRiyLIUnuLd1ZY3PGh-324" vertex="1">
          <mxGeometry y="90" width="200" height="30" as="geometry" />
        </mxCell>
        <mxCell id="6iKRiyLIUnuLd1ZY3PGh-336" value="FK" style="shape=partialRectangle;connectable=0;fillColor=none;top=0;left=0;bottom=0;right=0;fontStyle=1;overflow=hidden;whiteSpace=wrap;html=1;labelBackgroundColor=none;strokeColor=#DDA15E;fontColor=#FEFAE0;rounded=1;strokeWidth=3;" parent="6iKRiyLIUnuLd1ZY3PGh-335" vertex="1">
          <mxGeometry width="30" height="30" as="geometry">
            <mxRectangle width="30" height="30" as="alternateBounds" />
          </mxGeometry>
        </mxCell>
        <mxCell id="6iKRiyLIUnuLd1ZY3PGh-337" value="fid_facilities int not null" style="shape=partialRectangle;connectable=0;fillColor=none;top=0;left=0;bottom=0;right=0;align=left;spacingLeft=6;fontStyle=5;overflow=hidden;whiteSpace=wrap;html=1;labelBackgroundColor=none;strokeColor=#DDA15E;fontColor=#FEFAE0;rounded=1;strokeWidth=3;" parent="6iKRiyLIUnuLd1ZY3PGh-335" vertex="1">
          <mxGeometry x="30" width="170" height="30" as="geometry">
            <mxRectangle width="170" height="30" as="alternateBounds" />
          </mxGeometry>
        </mxCell>
        <mxCell id="6iKRiyLIUnuLd1ZY3PGh-338" value="" style="shape=tableRow;horizontal=0;startSize=0;swimlaneHead=0;swimlaneBody=0;fillColor=none;collapsible=0;dropTarget=0;points=[[0,0.5],[1,0.5]];portConstraint=eastwest;top=0;left=0;right=0;bottom=1;labelBackgroundColor=none;strokeColor=#DDA15E;fontColor=#FEFAE0;rounded=1;strokeWidth=3;" parent="6iKRiyLIUnuLd1ZY3PGh-324" vertex="1">
          <mxGeometry y="120" width="200" height="30" as="geometry" />
        </mxCell>
        <mxCell id="6iKRiyLIUnuLd1ZY3PGh-339" value="FK" style="shape=partialRectangle;connectable=0;fillColor=none;top=0;left=0;bottom=0;right=0;fontStyle=1;overflow=hidden;whiteSpace=wrap;html=1;labelBackgroundColor=none;strokeColor=#DDA15E;fontColor=#FEFAE0;rounded=1;strokeWidth=3;" parent="6iKRiyLIUnuLd1ZY3PGh-338" vertex="1">
          <mxGeometry width="30" height="30" as="geometry">
            <mxRectangle width="30" height="30" as="alternateBounds" />
          </mxGeometry>
        </mxCell>
        <mxCell id="6iKRiyLIUnuLd1ZY3PGh-340" value="id_type_facility int not null" style="shape=partialRectangle;connectable=0;fillColor=none;top=0;left=0;bottom=0;right=0;align=left;spacingLeft=6;fontStyle=5;overflow=hidden;whiteSpace=wrap;html=1;labelBackgroundColor=none;strokeColor=#DDA15E;fontColor=#FEFAE0;rounded=1;strokeWidth=3;" parent="6iKRiyLIUnuLd1ZY3PGh-338" vertex="1">
          <mxGeometry x="30" width="170" height="30" as="geometry">
            <mxRectangle width="170" height="30" as="alternateBounds" />
          </mxGeometry>
        </mxCell>
        <mxCell id="6iKRiyLIUnuLd1ZY3PGh-334" value="" style="edgeStyle=elbowEdgeStyle;fontSize=12;html=1;endArrow=ERoneToMany;rounded=1;entryX=0;entryY=0.5;entryDx=0;entryDy=0;exitX=0;exitY=0.5;exitDx=0;exitDy=0;labelBackgroundColor=none;strokeColor=#DDA15E;fontColor=default;strokeWidth=3;" parent="1" source="6iKRiyLIUnuLd1ZY3PGh-18" edge="1">
          <mxGeometry width="100" height="100" relative="1" as="geometry">
            <mxPoint x="364" y="548" as="sourcePoint" />
            <mxPoint x="214" y="923" as="targetPoint" />
            <Array as="points">
              <mxPoint x="124" y="718" />
            </Array>
          </mxGeometry>
        </mxCell>
        <mxCell id="6iKRiyLIUnuLd1ZY3PGh-341" value="" style="edgeStyle=elbowEdgeStyle;fontSize=12;html=1;endArrow=ERmany;rounded=1;entryX=0;entryY=0.5;entryDx=0;entryDy=0;exitX=0;exitY=0.5;exitDx=0;exitDy=0;labelBackgroundColor=none;strokeColor=#DDA15E;fontColor=default;strokeWidth=3;" parent="1" source="6iKRiyLIUnuLd1ZY3PGh-299" target="6iKRiyLIUnuLd1ZY3PGh-335" edge="1">
          <mxGeometry width="100" height="100" relative="1" as="geometry">
            <mxPoint x="204" y="1293" as="sourcePoint" />
            <mxPoint x="214" y="1158" as="targetPoint" />
            <Array as="points">
              <mxPoint x="164" y="1223" />
            </Array>
          </mxGeometry>
        </mxCell>
        <mxCell id="6iKRiyLIUnuLd1ZY3PGh-342" value="" style="edgeStyle=elbowEdgeStyle;fontSize=12;html=1;endArrow=ERmany;rounded=1;entryX=0;entryY=0.5;entryDx=0;entryDy=0;exitX=0;exitY=0.5;exitDx=0;exitDy=0;labelBackgroundColor=none;strokeColor=#DDA15E;fontColor=default;strokeWidth=3;" parent="1" source="6iKRiyLIUnuLd1ZY3PGh-315" target="6iKRiyLIUnuLd1ZY3PGh-338" edge="1">
          <mxGeometry width="100" height="100" relative="1" as="geometry">
            <mxPoint x="214" y="1313" as="sourcePoint" />
            <mxPoint x="224" y="1178" as="targetPoint" />
            <Array as="points">
              <mxPoint x="174" y="1243" />
            </Array>
          </mxGeometry>
        </mxCell>
      </root>
    </mxGraphModel>
  </diagram>
</mxfile>
